<?xml version="1.0" encoding="UTF-8"?>
<svg id="Layer_2" data-name="Layer 2" xmlns="http://www.w3.org/2000/svg" width="1991" height="1376.4" xmlns:xlink="http://www.w3.org/1999/xlink" viewBox="0 0 1991 1376.4">
  <defs>
    <style>
      .cls-1 {
        fill: #ed1c27;
      }

      .cls-2 {
        fill: #fff;
      }

      .cls-3 {
        fill: #00827b;
      }

      .cls-4 {
        fill: #e9e11e;
      }

      .cls-5 {
        fill: #70c2be;
      }

      .cls-6 {
        fill: none;
      }

      .cls-7 {
        fill: url(#linear-gradient);
      }
    </style>
    <linearGradient id="linear-gradient" x1="772.15" y1="1553.87" x2="773.25" y2="1553.87" gradientTransform="translate(76370.68 -36269.33) rotate(90) scale(48.48)" gradientUnits="userSpaceOnUse">
      <stop offset="0" stop-color="#fff"/>
      <stop offset="1" stop-color="#e9e11e"/>
    </linearGradient>
  </defs>
  <g id="Layer_1-2" data-name="Layer 1">
    <path d="m809.56,1231.93s4.87-2.74,50.14-2.74,325.49-4.17,364.75-5.47,87.31-2.34,111.64-46.17,61.85-232.3,5.27-237.36c-56.58-5.06-306.92-10.06-400.36-1.76s-258.67,131.08-283.01,168.54c-4.78,7.35,151.58,124.96,151.58,124.96Z"/>
    <g id="Layer_1-2" data-name="Layer 1-2">
      <path d="m1180.06,376.4c44.81-150.29,76.88-208.71,77.21-209.28l41.19-73.25-311.27,143.21,19.66-61.9-279.76,140.82-15.76,49.68-236,110.7-3.45,5.15c-5.41,4.62-17.29,20.95-58.84,78.57-72.04,99.97-206.33,286.1-329.96,426.5L0,1077l315.05-129.75c-37.16,91.3-115.08,277.73-160.59,351l-48.46,78.15,471.43-221.27c41-19.19,71.55-38.75,96.23-61.57,2.67-2.45,5.28-4.97,7.84-7.56,10.05,1.28,20.23,1.17,30.25-.31,2.67-.39,5.39-.89,8-1.47,14.36-3.16,25.83-8.18,35-12.2l1.57-.74,622.55-291.28,6.52-3,4.18-5.88c3.14-4.46,317.4-447.9,516-673.86L1991,0l-810.94,376.4Z"/>
      <path class="cls-5" d="m1137.43,426.24c55.4-200.8,96.1-272.52,96.1-272.52l-291,133.91,18.73-59-211.67,106.53-15.91,50.12-239.87,112.54s-200.81,300.63-390.67,507.23l261.3-107.6s-122.6,311.78-186.83,415.22l388.19-182.22c34.49-16.15,64.48-34,89.31-56.91,5.94-5.45,11.55-11.24,16.81-17.34.94.27,1.47.44,1.61.47,11.14,3.04,22.79,3.72,34.21,2,2.09-.31,4.13-.69,6.09-1.13,11.83-2.59,21.57-6.85,30.15-10.6l.29-.16,623-291.52s316.2-446.76,517.79-676.1l-747.63,347.08Z"/>
      <path class="cls-2" d="m1353.72,726.17l-616.79,288.62c-16.6,7.34-33.25,14-53.7,8.54-.3-.06-.67-.17-1-.27-5.23-1.72-10.07-4.46-14.23-8.06-7.68,11.29-16.65,21.64-26.72,30.85-22.23,20.51-49.87,37.18-83.08,52.75l-319.2,149.81c66-111.63,169.37-404.71,169.37-404.71l-210.82,88.08c82.17-86.58,315.85-423.78,315.85-423.78l243.6-114.34,16-50.5,149.74-75.38-18,56.82,283.12-130.85s-32.8,79.13-84.16,267l697.35-324s-110.57,103.38-447.33,589.42Z"/>
      <path class="cls-3" d="m796.93,359.3l75.35-37.92-17.17,54.18,59.25-27.72-15.49,48.9-59.24,27.66-41.8,131.72c-5,16-4.85,19.48,8.43,13.29l26.15-12.23c14.48-6.74,25.56-17.83,29.84-22.11l-23.25,60.65-93.32,43.61c-23.63,11-39,4.67-19.32-57.44l38.9-122.71-23.09,10.82,15.5-48.85,23.09-10.86,16.17-50.99Zm141.31-22.93c.37,10.65,1,19-10,53.5l-42.81,134.93c-10.93,34.52-17.93,46.35-26.38,61.2l90.8-42.45c-.36-10.71-1-19,10-53.54l38.96-122.71c4.85-15.41,9.68-22.2,18.83-26.46l27.08-12.62c9.16-4.3,10.65-.47,5.75,14.92l-38.93,122.72c-11,34.5-17.93,46.36-26.41,61.19l90.77-42.43c-.36-10.7-.89-19,10-53.54l32.24-101.46c17.68-55.76,14.29-84.06-20.7-67.69l-60.18,28.17c-11,5.11-20,20.59-27.49,35l-.64.29,6-25-76.89,35.98Zm-438.62,283l.62-.26-50.8,159.43,85.43-39.89,100-182.47.62-.28-33.61,108c-2.8,9-5.71,19-11.56,32.14-3.83,8.5-7.06,14.07-11.32,22l87.63-41.04c1.38-16,1.93-21.71,14.26-60.06l59.64-187.11-77.85,36.38-119.17,217.65-.65.31,61.14-190.51-76.88,36-166,240c-13,19.16-37.61,52.84-61.05,78.72l70.35-32.86c1.07-5.94,4.66-13.55,8.73-21.27,4.74-9.05,16.29-27.05,25-39.75l95.47-135.13Z"/>
      <path class="cls-1" d="m469.16,1035.85l59.55-27.85c18.75-8.73,24-17.24,35.54-51.52l42.29-125.05c11.56-34.3,11.19-40.22-7.58-31.4l-49.79,22.26-80.01,213.56Zm-36-156.79c19.37-47.49,24.34-69.45,20.3-83.47l219.64-101.27c63.72-29.76,72.19,1.21,37.12,105l-49.38,162.24c-14.54,48-51.44,80.23-115.19,110l-232.92,108.86c12.34-22.53,20.53-42.67,39-92.17l81.43-209.19Zm484.66-167.25l16-50.51c6.76-21.3,5.78-28.23-6.41-22.56l-45.41,21.26c-12.18,5.72-18.68,16.12-25.45,37.42l-16,50.55,77.27-36.16Zm-100.37,108.75l-11,34.78c-8.07,26.61-4.54,34.35,13.24,26.06l106.38-49.7c21.09-9.9,33-17.48,55.12-39.25l-36.44,92.31-220.25,103c-49.64,23.23-52.69-4.94-28.14-82.32l46.64-146.89c24.53-77.32,49.62-118.62,99.26-141.85l168.17-78.61c49.68-23.24,52.72,4.92,28.14,82.32l-36,113.67-185.12,86.48Zm700.12-452.83c13.35-19,31.08-46.12,38.29-59.57,6.23-11.66,11.69-23,13.23-31.75l109.91-51.35c-36.2,39.06-74.12,89.76-94,118.53l-247.07,356.91-137.62,64.31,91.13-283.31-1.11.52-194,331.39-115.73,54.09,88.66-278.09c18.29-57,19.08-65.41,21.22-89.3l130.21-60.85c-6.31,11.7-11.12,20-16.78,32.74-8.73,19.48-13.09,34.31-17.22,47.64l-50,160.56,1-.46,162.38-277.59,152.84-71.45-75.62,237.07,1.18-.54,139.1-199.5Z"/>
      <g>
        <path d="m1462.2,678.63c-9.44,0-17.86,6.48-17.86,17.61s8.42,17.71,17.86,17.71,17.61-6.55,17.61-17.71-8.28-17.61-17.61-17.61Zm0,31.24c-7.26,0-13.74-5.03-13.74-13.62s6.48-13.54,13.74-13.54,13.57,4.98,13.57,13.54-6.42,13.62-13.59,13.62h.02Z"/>
        <path d="m1465.45,697.51c2.55-.2,4.57-1.47,4.57-5.03,0-4.26-2.94-5.69-7.75-5.69h-7.12v19.08h4.12v-8.07h1.86l4.4,8.07h4.75l-4.84-8.37Zm-2.69-2.94h-3.48v-4.61h2.73c1.61,0,3.74.23,3.74,2.2-.01,2.02-1.12,2.41-2.99,2.41Z"/>
        <path d="m1462.2,723.4c-15.56,0-27.3-11.67-27.3-27.15s11.74-27.04,27.3-27.04,27.08,11.62,27.08,27.04-11.65,27.15-27.08,27.15Zm0-31.25c-1.61,0-4.31.54-4.31,4.1s2.7,4.18,4.31,4.18,4.12-.55,4.12-4.18-2.61-4.1-4.15-4.1h.02Z"/>
        <path d="m1470.32,715.27h-4.75c-2.04-.71-4.25-.71-6.29,0h-4.12c-5.22,0-9.44-4.23-9.44-9.44v-19.08c0-5.22,4.23-9.44,9.44-9.44h7.11c12.69,0,17.2,8.15,17.2,15.13.04,2.55-.56,5.08-1.75,7.34l.73,1.3c2.63,4.51,1.1,10.29-3.4,12.91-1.44.84-3.08,1.28-4.76,1.28h.03Z"/>
        <path class="cls-2" d="m1462.2,678.63c-9.44,0-17.86,6.48-17.86,17.61s8.42,17.71,17.86,17.71,17.61-6.55,17.61-17.71-8.28-17.61-17.61-17.61Zm0,31.24c-7.26,0-13.74-5.03-13.74-13.62s6.49-13.54,13.74-13.54,13.56,4.98,13.56,13.54-6.41,13.62-13.58,13.62h.02Z"/>
        <path class="cls-2" d="m1465.45,697.51c2.55-.2,4.57-1.47,4.57-5.03,0-4.26-2.94-5.69-7.75-5.69h-7.12v19.08h4.12v-8.07h1.86l4.4,8.07h4.75l-4.84-8.37Zm-2.69-2.94h-3.48v-4.61h2.73c1.61,0,3.74.23,3.74,2.2-.01,2.02-1.12,2.41-2.99,2.41Z"/>
      </g>
    </g>
    <g id="g68">
      <path id="path70" d="m1346.66,1171.31l155.21-140.49-102.9-110.99-185.61-33.74-398.53,299.5,531.84-14.29Z"/>
    </g>
    <g id="g80">
      <path d="m1512.47,993.75c-9.7-57.25-46.45-107.94-97.65-143.4-52.53-36.41-122.28-55.66-201.73-55.66-89.64.02-172.99,24.22-215.86,48.21-46.89,26.32-44.66,56.71-41.52,68.55,10.61,40.05,72.99,62.9,171.44,62.9,1.36,0,2.74,0,4.11-.01l145.15-.93,68.17,3.51-14.47-5.18c1.15-1.72.56-4.52-2.07-5l-3.92-.72,56.24,6.15-153.95-59.63c-11.95-4.63-24.41-10.41-34.4-15.75,83.32-13.9,163.19,35.74,164.02,36.27l19.5,12.43c8.41,8.99,13.99,16.78,17.21,21.79,22.9,35.56,21.54,76.05-4.05,120.35-20.74,35.9-49.91,60.74-50.18,60.97l-14.42,59.13c-4.61,18.91,20.01,30.57,31.71,15.01l25.15-33.43c5.53-2.07,14.22-19.51,54.9-84.21,7.39-11.77,13.5-23.79,18.32-35.92-4.11,18.69-11.5,37.93-22.21,57.67-25.89,47.72-61.98,80.42-62.33,80.73l-4.99,4.46c-16.2,14.47-1.25,40.82,19.48,34.33l6.39-2c6.8-2.13,43.1-17.01,90.18-101.57,26.09-46.78,40.32-98.62,31.78-149.04Z"/>
      <path id="path82" class="cls-5" d="m1391.31,896.44c-52.42-42.26-124.03-53.77-183.33-53.77-46.71,0-85.77,7.16-101.91,11.99-133.31,40.35-5.92,87.99,92.84,93.08,0,0-133.98-47.97-92.01-74.99-1.17.93-2.15,1.9-2.91,2.91-15.63,21.6,63.46,51.45,114.61,57.04,0,0-98.1-37.93-54.94-51.4,101.77-31.66,204.01,33.49,204.01,33.49-8.89-12.68-34.75-27.69-53.62-37.56,46.06,19.88,79.06,50.58,96.89,78.32,67.12,104.23-58.52,209.61-58.52,209.61,0,0,26.25-9.82,65.1-71.59,38.47-61.31,44.55-140.19-26.2-197.13"/>
    </g>
    <path id="path310" class="cls-5" d="m1397.45,1133.43h9.4v-3.55h-9.4v3.55Z"/>
    <path id="path370" class="cls-5" d="m1402.49,868.13c-54.93-38.08-123.51-51.81-189.38-51.81h-.02c-84.5.02-164.49,22.62-205.27,45.44-68.4,38.38-26.95,91.88,123.3,90.92,0,0-74.88-13.71-98.77-39.6-18.6-20.16-2.61-57.7,97.55-73.47,131.51-20.63,263.21,3.43,326.08,110.08,81.04,137.34-71.93,273.99-71.93,273.99,0,0,32.47-10.15,77.74-91.45,45.28-81.19,40.57-194.95-59.3-264.11"/>
    <g id="g372">
      <path id="path374" d="m1511.8,1181.88c0,29.23-23.64,52.93-52.81,52.93s-52.81-23.7-52.81-52.93,23.64-52.93,52.81-52.93,52.81,23.7,52.81,52.93"/>
    </g>
    <g id="g376">
      <path id="path378" class="cls-2" d="m1459.2,1209.99c-15.02,0-28.37-10.44-28.37-28.21s13.35-28.02,28.37-28.02,28.03,10.31,28.03,28.02-13.22,28.21-28.03,28.21m.05-64.67c-19.52,0-36.93,13.42-36.93,36.44s17.41,36.66,36.93,36.66,36.41-13.56,36.41-36.66-17.16-36.44-36.41-36.44"/>
    </g>
    <g id="g380">
      <path id="path382" class="cls-2" d="m1460.4,1178.26h-7.18v-9.53h5.63c3.35,0,7.75.45,7.75,4.49,0,4.28-2.31,5.04-6.2,5.04m15.02-4.33c0-8.85-6.13-11.78-16.04-11.78h-14.71v39.44h8.54v-16.73h3.86l9.11,16.73h9.85l-10.09-17.28c5.28-.39,9.47-2.95,9.47-10.38"/>
    </g>
    <g id="g84">
      <path id="path86" class="cls-2" d="m826.68,1085.98s-25.59-.15-43.22.23c0,0-11.33,22.65-22.41,40.57,17.99.13,42.03-.5,42.03-.5,0,0,11.52-19.77,23.6-40.29m-30.99,68.53s-30.51-.13-50.18.32c0,0-12.81,24.74-24.85,44.24,21.41.16,48.98-.56,48.98-.56,0,0,12.73-21.63,26.05-44.01m-74.22,77.23s-42.87.79-77-.08c25.37-42.94,57.05-102.95,80.8-144.59l-17.56.38c9.43-14.42,25.48-40.02,25.48-40.02,110-3.57,197.74-6.21,169.03,43.94-13.62,23.01-41.14,37.48-72.03,45.38,24.06,6.75,34.63,20.29,18.17,46.43-18.01,28.53-56.72,48.46-126.9,48.56"/>
    </g>
    <g id="g88">
      <path id="path90" class="cls-2" d="m908.13,1208.85c-29.99.56-48.3-.11-48.3-.11,25.64-43.18,60.79-100.86,89.34-151.68,32.08-1,63.76-1.37,63.76-1.37-25.48,39.92-78.64,112.14-104.8,153.17"/>
    </g>
    <g id="g92">
      <path id="path94" class="cls-2" d="m1031.43,1171.02s-14.08-.12-34.64.21c0,0-4.76,9.57-6.32,18.06,0,0,14.36-.27,30.84-1.06,0,0,5.94-8.45,10.12-17.21m-6.13,36.56l2.89-5.66c-12.14,2.7-25.17,3.83-38.32,4.12-39.08.46-53.96-12.37-43.63-25.85,10.83-14.41,38.57-24.37,64.24-25.97,17.98-1.23,33.04.46,41.19,4.07,5.71-11.04,11.11-21.74,14.89-29.79,0,0-16.08.06-28.58.34-2.2,8.49-7.38,19.84-7.38,19.84-29.03,1.01-54.51,1.36-54.51,1.36,11.49-21.34,17-27.29,34.75-34.97,16.56-6.83,68.08-17.36,92.46-.05,23,15.53-18.24,62.92-41.14,91.72-18.54.11-36.87.84-36.87.84"/>
    </g>
    <g id="g96">
      <path id="path98" class="cls-2" d="m1161.62,1206.24c-65.87,1.85-75.11-12.01-56.72-35.58,0,0,30.31-.17,52.76.36,0,0-6.75,10.97-7.57,14.21,0,0,21.48.12,34.01-.15,2.73-4.41,5.15-12.25,5.15-12.25-35.73-8.91-76.98-17.01-62.12-38.83,13.8-19.12,54.29-28.74,88.65-28.47,62.04.32,58.25,19.28,46.22,37.61,0,0-28.71.54-55.31.7,4.16-7.62,8.33-16.31,8.33-16.31,0,0-16.09.08-31.81.59-3.67,5.81-7.73,14.34-7.73,14.34,27.07,7.04,79.08,16.58,62.81,39.73-11.36,15.21-42.7,23.04-76.66,24.06"/>
    </g>
    <g id="g100">
      <path id="path102" class="cls-2" d="m1322.9,1203.67c-50.92-.39-53.77-11.68-47.11-24.33,7.32-13.72,18.08-32.05,29.3-51.02l-20.25-.08c5.14-10.25,10.29-18.58,10.29-18.58,6.81,0,14.22-.05,21.19-.3,6.67-10.69,12.56-21.15,17.78-30.51,30.14-1.94,61.4-3.64,61.4-3.64-6.19,10.04-13.3,21.43-21.38,33.37,16.8-.3,52.04-.57,66.56-1.09l-33.43,21.22c.59-.79-31.45-.13-46.87,0-12.85,19.58-26.19,39.02-35.27,53.64,7.73.39,19.03.15,19.03.15,6.58-7.67,13.17-17.28,13.17-17.28,24.9-.34,47.49-.04,47.49-.04-13.93,26.39-35.32,38.95-81.88,38.49"/>
    </g>
    <g id="g112">
      <path id="path114" d="m682.86,1115.17l-29.67-2.89,31.66-15.58,11.22-6.93"/>
    </g>
    <g id="g116">
      <path id="path118" d="m560.5,1188.97l147.2,34.75,27.79-51.47"/>
    </g>
    <g id="g120">
      <path id="path122" d="m763.22,1090.93l-127.53,8.71,123.66,15.76,27.05-25.69"/>
    </g>
    <g id="g124">
      <path id="path126" d="m763.22,1090.93l-.07-1.23-140.08,9.56,136.72,17.43,29.87-28.43-26.5,1.44h-.01l.07,1.23.05,1.23,19.85-1.06-24.2,23-110.59-14.09,114.97-7.85-.08-1.23.05,1.23"/>
    </g>
    <g id="g128">
      <path id="path130" d="m611.75,1111.14l130,30.77,29.75-41.12"/>
    </g>
    <g id="g132">
      <path id="path134" d="m1061.13,1045.35l-61.58-10.38,70.87-6"/>
    </g>
    <g id="g136">
      <path id="path138" d="m1021.09,1023.13l54.39-4.14-5.92,11.83"/>
    </g>
    <g id="g140">
      <path id="path142" d="m1380.94,1180.27c-1.04.59-2.24,1.1-3.37,1.61l1.21-1.59,2.17-.02m-4.81-88.05c-2.24,3.46-9.67,15.06-13.66,21.33h-.8l-4.99,7.67-14.51,21.91s-25.05,38.31-28.94,44.2c-4.79-.57-7.9-1.24-9.77-1.81,7.26-13.57,18.3-32.3,28.97-50.37,0,0,3.2-5.43,6.43-10.85h.11l4.23-7.45.82-1.37c4.69-7.51,8.98-14.95,13.03-22.17,5.24-.3,9.57-.53,19.09-1.1"/>
    </g>
    <g id="g144">
      <path id="path146" d="m1365.96,1181.88l1.21-1.59,2.16-.02c-1.06.58-2.19,1.1-3.36,1.61m-81.19-87.15l-5.09,7.76c-.07.13-.75,1.21-1.74,2.95-2.39-2.31-5.3-4.27-8.64-6.07,5.77-2.85,10.75-6.42,14.96-10.59,4.46-4.62,8.74-9.95,12.75-15.77,4.32,2.27,10.15,4.17,18.06,4.97-3.03,5.36-6.26,10.8-9.56,16.35-5.27.1-20.74.39-20.74.39m-160.39,19.25c-2.17-4.01-5.48-7.68-10.22-10.91-32.17-22.8-92.56-9.23-110.87-1.63h-.05s8.26-12.9,8.26-12.9l32.91.26c17.99-.2,39.81-1.23,42.26-1.35,23.75-.82,42.88-5.3,57.29-13.22,5.11,5.14,14.57,9.72,32.07,9.76l-.03,1.15c0,2.94.63,5.76,1.88,8.39-20.32,3.66-39.75,10.28-53.49,20.45m332.57.12l15.31-22.36s-64.43.85-71.97,1.01c2.72-4.27,22.08-34.39,22.08-34.39l-27.93,1.83-1.75.09c16.02-20.08,27.39-36.8,25.23-51.24-.94-6.16-4.19-11.27-9.42-14.94-18.14-13.12-49.13-6.73-64.14-2.02,8.93-11.46,5.92-25.4,5.92-25.4l-3.71.27-12.2.39h.06c-14.23.15-28.95.81-41.59,1.89l-8.07.69-9.01,16.65-4.52,8.23-1.16.05-3.7,7.38-.73,1.28c-1.23-1.36-2.62-2.62-4.25-3.78-17.94-13.01-48.54-6.8-63.7-2.01.72-2.52,1.11-4.89,1.11-7.21,0-4.45-1.27-8.52-3.78-12.14-12.01-17.69-43.09-16.56-106.54-12.48l-24.92.43-32.52,49.45,29.8-.57-14.87,24.88-33.3.46-74.88,1.69s-34.55-8.31-36.37-3.95c-30.16-12.98-85.48-12.08-167.37-9.42l-11.55.41-46.14,73.47s10.25-.12,19.76-.28c-9.14,16.46-21.59,36.88-21.59,36.88-16.1,29.41-32.75,59.76-47.26,84.35l-15.22,25.74,30.36.74c34.19.86,76.14.13,77.85.13h-.34c45.51-.07,81.77-8.04,108.49-23.62l5.66,2.52h86.99l13.95-21.7c8.59,7.39,24.66,14.02,55.07,13.68,3.17-.06,6.14-.22,9.14-.39l-1.34,2.56,73.32-1.66,5.5-6.4,5.81-7.27c.86-1.07,1.77-2.15,2.62-3.23,10.82,12.78,34.3,17.8,77.07,16.58h.04c20.82-.64,71.37-4.92,90.8-31.04l.3-.34c.77-1.15,1.42-2.22,2-3.31l.23,1.41c0,4.9,1.53,9.32,4.54,13.44,8.78,11.86,27.46,17.01,62.6,17.27,50.94.47,80.27-13.68,98.06-47.37l11.15-20.98-26.89-.43,1.24-2.84,50.66-33.1"/>
    </g>
    <path id="path148" d="m984.85,1131.63h367.87v-68.05h-367.87v68.05Z"/>
    <g id="g150">
      <path id="path152" class="cls-5" d="m1124.76,1033s-16.41.49-27.07,1.04c0,0-6.54,12.82-12.75,22.87,11.58-.26,26.41-1.11,26.41-1.11,0,0,6.6-11.24,13.41-22.81m15.74-35.29s-13.85.36-23.34.77c0,0-5.81,11.81-11.49,21.06,9.72-.25,22.7-1.01,22.7-1.01,0,0,5.93-10.27,12.13-20.82m-54.61,75.87s-23.16,1.15-41.57,1.32c13.04-22.3,29.21-53.35,41.41-74.86l-31.34.51c4.9-7.51,13.2-20.77,13.2-20.77,59.27-3.8,128.54-6.73,113.81,19.27-7.02,11.92-21.73,19.76-38.28,24.35,13.12,2.98,19.05,9.67,10.56,23.23-9.34,14.79-29.94,25.58-67.81,26.96"/>
    </g>
    <g id="g154">
      <path id="path156" class="cls-5" d="m1124.76,1033l-.13-3.78s-16.42.53-27.12,1.07l-2.17.09-1,1.95s-.39.77-1.09,2.14c-2.11,4.03-6.95,13.09-11.51,20.49l-3.66,5.9,6.93-.16c11.69-.27,26.53-1.14,26.54-1.14l2.01-.13,1.02-1.71s1.63-2.81,4.13-7.09c2.52-4.25,5.87-9.95,9.26-15.74l3.47-5.88-6.83.2.13,3.78-3.25-1.92c-6.79,11.58-13.4,22.82-13.4,22.82l3.23,1.92-.22-3.77s-3.69.22-8.81.48c-5.14.24-11.7.53-17.46.65l.08,3.75,3.2,2c6.33-10.26,12.88-23.11,12.9-23.17l-3.35-1.71.17,3.77c5.3-.27,12.07-.53,17.48-.73,5.42-.19,9.51-.33,9.54-.33l-.13-3.75-3.25-1.92m18.98-33.37l-.11-3.77s-13.84.37-23.38.78l-2.24.1-.98,1.99s-.36.72-.98,1.95c-1.87,3.73-6.2,12.03-10.34,18.82l-3.64,5.93,6.93-.19c9.82-.28,22.79-1.03,22.82-1.03l2-.12,1.02-1.74s1.48-2.58,3.73-6.46c2.26-3.89,5.29-9.08,8.38-14.36l3.45-5.86-6.79.18.11,3.77-3.24-1.92c-6.22,10.56-12.15,20.85-12.15,20.87l3.26,1.88-.24-3.78s-3.22.19-7.64.42c-4.45.23-10.11.49-14.92.61l.11,3.75,3.22,1.97c5.79-9.46,11.62-21.31,11.63-21.37l-3.36-1.66.15,3.77c4.73-.19,10.54-.4,15.19-.54,4.63-.15,8.07-.23,8.08-.23l-.08-3.77-3.24-1.92,3.24,1.92Zm-54.61,75.87l-.19-3.77s-5.76.28-13.83.59c-8.06.32-18.43.64-27.57.73l.03,3.77,3.25,1.9c13.09-22.42,29.29-53.47,41.44-74.89l3.25-5.75-37.93.62.07,3.77,3.14,2.06c4.94-7.54,13.26-20.81,13.26-20.83l-3.19-2.01.24,3.75c20.02-1.27,41.13-2.46,59.68-2.46,15.59,0,29.41.86,38.91,3.08,4.74,1.09,8.37,2.56,10.5,4.09,1.06.74,1.76,1.49,2.15,2.17.39.69.57,1.33.58,2.16,0,1.07-.37,2.6-1.51,4.62l3.27,1.86-3.25-1.92c-6.12,10.56-19.94,18.23-36.02,22.65l.17,7.3c4.14.93,7.28,2.27,9.09,3.71.91.74,1.5,1.48,1.88,2.22.38.74.59,1.54.6,2.63,0,1.98-.88,5.01-3.37,9.02l.02-.02c-4.22,6.65-11.02,12.56-21.52,17.04-10.49,4.48-24.67,7.47-43.29,8.15h-.05l.19,3.77.11,3.76c19.28-.7,34.34-3.77,45.98-8.75,11.61-4.94,19.8-11.82,24.92-19.94,2.92-4.72,4.5-8.95,4.52-13.01.02-2.17-.46-4.25-1.43-6.09-1.42-2.76-3.75-4.83-6.47-6.36-2.73-1.56-5.95-2.64-9.53-3.45l-.85,3.66,1.02,3.62c16.99-4.72,32.59-12.78,40.48-26.04l.03-.04h0c1.59-2.82,2.5-5.58,2.5-8.37,0-2.14-.57-4.21-1.64-6.01-1.87-3.11-4.9-5.23-8.53-6.89-5.47-2.44-12.56-3.88-20.99-4.82-8.4-.94-18.08-1.31-28.49-1.31-18.86,0-40.1,1.21-60.16,2.47l-1.93.14-1.02,1.63s-2.06,3.29-4.74,7.55c-2.7,4.26-6,9.44-8.42,13.15l-3.89,5.95,38.42-.6-.05-3.78-3.26-1.84c-12.25,21.59-28.45,52.61-41.4,74.8l-3.35,5.73,6.64-.06c18.53-.16,41.67-1.33,41.7-1.33l-.17-3.76.11,3.76-.11-3.76Z"/>
    </g>
    <g id="g158">
      <path id="path160" class="cls-5" d="m1207.1,1047.43s-8.54.13-21.07.73c0,0-3.23,6.11-4.5,11.45,0,0,8.73-.47,18.78-1.26,0,0,3.92-5.42,6.78-10.91m-5.06,22.85l1.97-3.59c-7.43,1.92-15.41,2.93-23.42,3.36-23.79,1-32.38-6.62-25.67-15.2,7.09-9.25,24.35-15.98,40.03-17.56,10.97-1.07,20.07-.34,24.91,1.73,3.83-7.01,7.54-13.76,10.11-18.83,0,0-9.78.34-17.37.71-1.66,5.38-5.21,12.57-5.21,12.57-17.7,1.18-33.23,1.96-33.23,1.96,7.76-13.6,11.31-17.35,22.39-22.53,10.33-4.57,42.04-12.16,56.26-1.81,13.4,9.2-13.35,39.54-28.31,57.93-11.24.45-22.48,1.26-22.48,1.26"/>
    </g>
    <g id="g162">
      <path id="path164" class="cls-5" d="m1207.1,1047.43l-.06-3.78s-8.6.16-21.19.75l-2.13.09-1,1.88c-.07.16-3.39,6.32-4.85,12.34l-1.17,4.9,5.01-.26s8.79-.47,18.89-1.28l1.72-.14,1.01-1.39c.05-.08,4.04-5.55,7.09-11.37l2.93-5.61-6.32.09.06,3.78-3.35-1.75c-1.34,2.58-2.97,5.21-4.26,7.18-.66,1-1.21,1.8-1.62,2.39l-.61.85,3.06,2.24-.3-3.77c-5,.41-9.68.72-13.09.92-3.43.22-5.59.32-5.59.32l.19,3.79,3.66.85c.53-2.28,1.58-4.98,2.5-7.06.46-1.03.88-1.92,1.19-2.54l.36-.72.12-.21-3.33-1.77.18,3.75c6.24-.29,11.48-.46,15.17-.57,3.67-.11,5.77-.16,5.78-.16l-.05-3.75-3.35-1.75m-1.71,24.59l3.28,1.81,1.98-3.58,4.19-7.65-8.43,2.19c-7.1,1.84-14.86,2.83-22.66,3.25l.18,3.76-.15-3.76c-1.37.05-2.7.08-3.96.08-7.59.01-13.1-1.05-16.3-2.51-1.61-.7-2.59-1.47-3.1-2.09l-.61-1.48c0-.61.28-1.68,1.42-3.12l.02-.02v-.04c2.91-3.8,8.5-7.62,15.28-10.45,6.77-2.89,14.71-4.93,22.16-5.64h-.02c3.25-.33,6.34-.49,9.14-.49,6.34-.02,11.41.83,13.94,1.93l3.13,1.36,1.65-3c3.82-7.04,7.55-13.77,10.17-18.93l2.88-5.71-6.37.21s-9.79.37-17.42.72l-2.65.11-.78,2.55c-.74,2.42-1.98,5.49-3.07,7.86-.5,1.2-1,2.25-1.34,2.98l-.56,1.14,3.37,1.69-.26-3.76c-8.83.58-17.13,1.07-23.21,1.42-6.09.34-9.95.52-9.95.52l.18,3.78,3.26,1.86c3.83-6.72,6.53-10.76,9.36-13.63,2.83-2.86,5.97-4.82,11.36-7.34l-1.59-3.43,1.5,3.45c2.93-1.31,8.2-3.02,14.3-4.35,6.11-1.34,13.1-2.31,19.65-2.31,7.6-.03,14.49,1.41,18.63,4.45l.05.04.03.03,1.53,1.7c.29.62.48,1.42.48,2.49.04,2.29-.98,5.75-2.91,9.63-2.88,5.88-7.66,12.78-12.85,19.58-5.18,6.77-10.8,13.42-15.36,19.05l2.91,2.37-.15-3.76c-11.32.46-22.57,1.27-22.59,1.27l.26,3.75,3.28,1.81-3.28-1.81.27,3.75s2.78-.19,6.98-.45c4.2-.25,9.79-.56,15.39-.79l1.7-.07,1.06-1.31c6.02-7.41,14.05-16.86,20.67-26.24,3.31-4.67,6.27-9.34,8.46-13.83,2.17-4.47,3.66-8.73,3.67-12.95.02-1.98-.36-3.94-1.23-5.77-.89-1.84-2.28-3.45-4.03-4.65l-2.15,3.12,2.23-3.05c-6.34-4.54-14.62-5.88-23.04-5.9-7.29,0-14.75,1.06-21.27,2.48-6.53,1.46-12.08,3.23-15.71,4.83h-.03s-.05.04-.05.04c-5.67,2.66-9.86,5.15-13.51,8.88-3.63,3.7-6.61,8.32-10.53,15.17l-3.42,5.98,6.88-.35s15.55-.76,33.29-1.96l2.15-.13.96-1.94c.04-.08,3.64-7.27,5.43-13.14l-3.59-1.1.16,3.76c7.55-.36,17.32-.7,17.35-.7l-.14-3.77-3.35-1.71c-2.52,4.97-6.23,11.73-10.06,18.73l3.29,1.81,1.49-3.45c-4.22-1.78-9.92-2.54-16.89-2.54-3.07,0-6.39.16-9.86.5h-.03c-8.22.83-16.77,3-24.32,6.18-7.53,3.22-14.12,7.4-18.3,12.82v-.02c-1.8,2.34-2.99,4.93-3,7.77-.02,2.3.88,4.56,2.37,6.33,2.24,2.64,5.52,4.34,9.67,5.51,4.18,1.17,9.3,1.79,15.5,1.79,1.36,0,2.79-.05,4.27-.1h.05c8.18-.43,16.39-1.48,24.15-3.48l-.94-3.65-3.28-1.81-2,3.58-3.31,6.07,6.89-.49-.27-3.75Z"/>
    </g>
    <g id="g166">
      <path id="path168" class="cls-5" d="m1321.19,998.33c-11.93.34-29.67,1.16-36.17,1.56,2.58-4.53,4.82-9.12,9.11-16.8,11.64-1.01,26.03-1.69,40.44-1.81,0,0-6.55,8.83-13.38,17.05m-98.09,97.13c-31.07.95-39.23-4.37-29.7-17.85,15.68-1,31.98-1.84,31.98-1.84-2.17,3.9-3.59,6.46-3.59,6.46,6.31-.09,17.57-1.07,17.57-1.07,15.44-24.76,28.41-49.79,40.18-72.96,18.38-1.03,35.62-2.11,35.62-2.11-7.17,18.82-23.44,54.45-41.51,73.1-7.13,7.02-21.39,15.38-50.54,16.28"/>
    </g>
    <g id="g170">
      <path id="path172" class="cls-5" d="m1321.19,998.33l-.11-3.77c-12.01.34-29.71,1.16-36.29,1.57l.23,3.76,3.26,1.89c2.68-4.69,4.87-9.22,9.13-16.85l-3.27-1.83.32,3.78c11.53-1.04,25.84-1.7,40.16-1.83l-.04-3.76-3.02-2.25s-.41.53-1.11,1.49c-2.14,2.84-7.09,9.33-12.14,15.4l2.89,2.42-.11-3.77.11,3.77,2.88,2.4c6.94-8.31,13.5-17.19,13.52-17.22l4.5-6.06-7.55.06c-14.51.12-28.98.79-40.76,1.84l-1.98.18-.96,1.71c-4.34,7.76-6.58,12.4-9.09,16.78l-3.46,6.04,6.95-.42c6.44-.4,24.19-1.24,36.04-1.56l1.68-.05,1.1-1.32m-100.97,94.73l-.12-3.77c-2.31.06-4.48.09-6.52.09-9,.03-15.44-.74-19.1-2.01-1.84-.61-2.9-1.31-3.37-1.83l-.58-1.46c-.05-1.09.78-3.52,3.05-6.71l-3.05-2.17.24,3.77c7.83-.5,15.82-.95,21.84-1.28,6.04-.34,10.09-.54,10.1-.54l-.2-3.78-3.27-1.82c-2.19,3.89-3.61,6.45-3.61,6.45l-3.15,5.71,6.5-.1c6.56-.11,17.78-1.11,17.82-1.11l1.87-.18.98-1.59c15.55-24.91,28.58-50.04,40.36-73.22l-3.35-1.72.21,3.78c18.38-1.04,35.63-2.13,35.64-2.13l-.24-3.75-3.51-1.34c-3.54,9.26-9.34,22.77-16.48,36.19-7.1,13.39-15.61,26.74-24.21,35.62l2.7,2.63-2.61-2.68c-6.4,6.26-19.54,14.29-48.04,15.18l.12,3.77.11,3.75c29.8-.86,45.19-9.55,53.07-17.35h.03s.04-.06.04-.06c9.44-9.78,18.13-23.58,25.46-37.35,7.31-13.75,13.2-27.47,16.85-37.03l2.09-5.46-5.83.35s-4.31.28-10.9.69c-6.61.4-15.52.92-24.69,1.45l-2.17.14-.97,1.92c-11.77,23.13-24.7,48.07-40.02,72.64l3.19,2.02-.35-3.77s-2.76.24-6.34.5c-3.58.26-7.95.53-10.94.58l.05,3.76,3.29,1.83s1.43-2.54,3.59-6.43l3.34-5.96-6.81.36s-16.32.82-32.04,1.82l-1.77.13-1.05,1.46c-2.64,3.81-4.39,7.27-4.44,11.05-.03,2.42.93,4.88,2.63,6.64,2.56,2.66,6.12,3.98,10.64,4.89,4.57.91,10.27,1.3,17.3,1.31,2.12,0,4.37-.04,6.75-.12l-.11-3.75Z"/>
    </g>
    <g id="g174">
      <path id="path176" class="cls-5" d="m1354.14,1041.73s-8.58.21-21.1.84c0,0-3.21,5.98-4.48,11.34,0,0,8.77-.46,18.83-1.32,0,0,3.88-5.32,6.76-10.87m-5.02,22.92l1.94-3.55c-7.46,1.83-15.43,2.85-23.43,3.34-23.78,1.04-32.39-6.65-25.68-15.32,7.18-9.18,24.34-15.93,40.09-17.43,10.96-1.12,20-.4,24.87,1.72,3.88-7.04,7.52-13.8,10.12-18.89,0,0-9.78.38-17.38.86-1.64,5.31-5.25,12.4-5.25,12.4-17.66,1.28-33.17,1.98-33.17,1.98,7.76-13.54,11.32-17.34,22.38-22.5,10.32-4.61,42.06-12.17,56.26-1.9,13.41,9.25-13.36,39.57-28.26,58.03-11.31.45-22.47,1.27-22.47,1.27"/>
    </g>
    <g id="g178">
      <path id="path180" class="cls-5" d="m1354.14,1041.73l-.08-3.77s-8.64.22-21.2.86l-2.13.09-1.01,1.87c-.05.17-3.36,6.2-4.82,12.26l-1.16,4.92,5-.27s8.82-.49,18.97-1.33l1.7-.15,1.01-1.38c.05-.11,3.99-5.47,7.05-11.37l2.94-5.65-6.37.15.08,3.77-3.34-1.72c-1.33,2.61-2.96,5.23-4.24,7.18-.64.97-1.2,1.81-1.58,2.35l-.46.62-.16.23,3.02,2.22-.3-3.75c-5,.43-9.67.74-13.13.99-3.42.22-5.6.31-5.6.31l.2,3.77,3.66.88c.54-2.28,1.59-4.96,2.5-7.02.47-1.02.88-1.89,1.18-2.48l.35-.71.12-.23-3.32-1.79.2,3.77c6.24-.31,11.51-.51,15.18-.66,3.69-.13,5.82-.18,5.82-.18l-.1-3.78-3.34-1.72m-1.68,24.64l3.31,1.81,1.91-3.55,4.09-7.48-8.28,2.02c-7.15,1.76-14.91,2.74-22.75,3.21l.22,3.78-.16-3.78c-1.42.05-2.79.07-4.07.07-7.53.04-13-1.05-16.19-2.5-1.59-.7-2.58-1.49-3.08-2.11l-.61-1.52c0-.63.29-1.71,1.41-3.16,2.94-3.8,8.55-7.61,15.33-10.45,6.76-2.86,14.68-4.86,22.13-5.55h.02l.03-.02c3.34-.34,6.48-.51,9.35-.51,6.2-.02,11.15.84,13.64,1.96l3.15,1.37,1.64-2.99c3.9-7.08,7.54-13.89,10.18-19.01l2.94-5.76-6.41.27s-9.83.38-17.48.86l-2.6.16-.77,2.48c-.73,2.39-1.99,5.41-3.07,7.76-.52,1.2-1.02,2.24-1.37,2.93l-.55,1.15,3.34,1.69-.27-3.74c-8.81.63-17.08,1.14-23.15,1.48-6.07.33-9.9.5-9.91.5l.16,3.74,3.26,1.89c3.82-6.72,6.53-10.75,9.36-13.63,2.83-2.87,5.97-4.84,11.35-7.36l-1.6-3.4,1.55,3.43c2.9-1.28,8.18-3.03,14.27-4.37,6.13-1.34,13.16-2.34,19.7-2.34,7.59-.04,14.45,1.39,18.53,4.44l.04.03h.04l1.53,1.72c.31.65.48,1.44.48,2.54.04,2.3-.98,5.74-2.89,9.66-2.87,5.86-7.65,12.78-12.84,19.57-5.18,6.77-10.77,13.43-15.33,19.07l2.92,2.37-.15-3.77c-11.38.46-22.58,1.29-22.6,1.29l.28,3.75,3.31,1.81-3.31-1.81.27,3.76s2.77-.21,6.95-.46c4.21-.28,9.78-.59,15.39-.8l1.72-.09,1.07-1.32c5.99-7.41,14.03-16.89,20.64-26.25,3.3-4.69,6.25-9.38,8.44-13.82,2.18-4.49,3.65-8.75,3.68-12.97,0-1.97-.36-3.98-1.24-5.79-.87-1.84-2.28-3.45-4.05-4.66l-2.12,3.11,2.21-3.05c-6.3-4.49-14.54-5.81-22.95-5.84-7.29,0-14.76,1.05-21.31,2.49-6.56,1.45-12.1,3.23-15.74,4.85h-.03s-.02.01-.02.01c-5.7,2.66-9.87,5.21-13.53,8.91-3.63,3.69-6.62,8.31-10.54,15.18l-3.39,5.93,6.82-.3s15.55-.71,33.28-1.99l2.12-.15.96-1.91c.03-.11,3.68-7.18,5.48-13l-3.59-1.12.23,3.75c3.78-.24,8.1-.44,11.49-.6,3.38-.15,5.81-.26,5.81-.26l-.15-3.76-3.34-1.73c-2.57,5.03-6.2,11.8-10.08,18.82l3.3,1.81,1.51-3.45c-4.2-1.8-9.81-2.57-16.65-2.57-3.16,0-6.55.18-10.13.55h.03c-8.27.82-16.79,2.94-24.35,6.11-7.54,3.23-14.08,7.37-18.31,12.74l-.02.02c-1.81,2.32-3,4.97-3.01,7.8-.02,2.3.87,4.58,2.36,6.33,2.23,2.65,5.49,4.38,9.63,5.55,4.16,1.16,9.25,1.79,15.43,1.79,1.4,0,2.86-.02,4.39-.09h.06c8.19-.48,16.37-1.53,24.09-3.41l-.88-3.68-3.3-1.79-1.93,3.55-3.32,6.09,6.88-.53-.27-3.76Z"/>
    </g>
    <g id="g182">
      <path id="path184" class="cls-5" d="m823.89,1085.98s-25.51-.15-43.13.23c0,0-11.4,22.65-22.37,40.57,17.9.13,41.91-.5,41.91-.5,0,0,11.59-19.77,23.6-40.29m-30.94,68.53s-30.48-.13-50.19.32c0,0-12.79,24.74-24.79,44.24,21.4.16,48.88-.56,48.88-.56,0,0,12.77-21.63,26.1-44.01m-74.18,77.23s-42.88.79-76.99-.08c25.35-42.94,56.98-102.95,80.79-144.59l-17.57.38c9.43-14.42,25.5-40.02,25.5-40.02,109.93-3.57,197.73-6.21,169.02,43.94-13.65,23.01-41.21,37.48-72.04,45.38,24.02,6.75,34.62,20.29,18.15,46.43-18.01,28.53-56.7,48.46-126.86,48.56"/>
    </g>
    <g id="g186">
      <path id="path188" class="cls-5" d="m823.89,1085.98l.03-5.03s-5.13-.02-12.37-.02c-8.94,0-21.1.05-30.91.25l-3.02.06-1.35,2.7s-.69,1.38-1.93,3.78c-3.68,7.16-12.13,23.21-20.23,36.42l-4.65,7.58,8.87.08c1.85.02,3.74.02,5.66.02,17.02,0,36.4-.5,36.42-.5l2.78-.09,1.41-2.39s11.58-19.79,23.61-40.3l4.4-7.51-8.7-.06-.03,5.03-4.32-2.57c-6.01,10.29-11.91,20.37-16.3,27.87-4.4,7.52-7.29,12.45-7.31,12.46l4.34,2.52-.13-5s-4.82.12-11.76.24c-6.94.14-15.99.27-24.41.27-1.89,0-3.76,0-5.58-.04l-.04,5.04,4.29,2.62c11.11-18.17,22.51-40.86,22.56-40.93l-4.47-2.26.1,5.03c9.67-.22,21.78-.27,30.69-.27,7.22,0,12.31.03,12.31.03l.04-5.01-4.32-2.57m-26.62,71.09l.03-5.02s-4.69-.02-11.59-.02c-10.7,0-26.68.06-38.75.33l-2.96.05-1.37,2.65s-.78,1.52-2.17,4.14c-4.12,7.82-13.55,25.35-22.45,39.78l-4.66,7.58,8.89.08c2.38.02,4.82.02,7.28.02,19.97,0,41.78-.58,41.81-.58l2.76-.09,1.41-2.37s3.19-5.4,8.05-13.6c4.86-8.2,11.37-19.17,18.04-30.39l4.5-7.55-8.78-.04-.03,5.02-4.31-2.58c-13.33,22.4-26.11,44-26.11,44l4.32,2.59-.14-5.03s-5.43.15-13.33.28c-7.91.16-18.31.3-28.19.3-2.44,0-4.86-.02-7.19-.03l-.04,5.03,4.26,2.63c12.14-19.72,24.94-44.52,24.99-44.59l-4.46-2.28.12,5.01c11.9-.29,27.86-.33,38.51-.33,6.87,0,11.51.02,11.54.02l.02-5.02-4.31-2.58,4.31,2.58Zm-74.18,77.23l-.11-5.01s-4.41.06-11.58.15c-7.16.09-17.02.17-27.88.17-12.01,0-25.23-.1-37.31-.42l-.12,5.03,4.31,2.56c25.46-43.12,57.08-103.14,80.83-144.66l4.42-7.71-26.45.59.12,5.01,4.19,2.77c9.48-14.51,25.56-40.1,25.57-40.11l-4.25-2.68.17,5.01c26.93-.88,52.5-1.68,75.26-1.68,29.02-.04,53.58,1.38,70.25,5.42,8.34,2.02,14.62,4.73,18.43,7.82,1.92,1.52,3.24,3.11,4.09,4.75.84,1.65,1.28,3.45,1.3,5.63.01,3.61-1.37,8.44-4.84,14.52l4.35,2.48-4.31-2.58c-6.29,10.64-15.93,19.45-27.85,26.62-11.9,7.18-26.05,12.62-41.12,16.47l-18.1,4.65,17.99,5.06c7.59,2.12,13.47,4.93,17.1,8.18,1.85,1.61,3.15,3.31,4,5.13.87,1.81,1.33,3.78,1.34,6.18.03,4.73-1.98,11.21-7.18,19.41-8.41,13.31-21.64,24.75-41.55,32.97-19.89,8.24-46.48,13.21-81.1,13.26h-.08l.11,5.01v5.01c35.54-.04,63.4-5.1,84.89-13.99,21.5-8.88,36.62-21.68,46.2-36.92,5.75-9.15,8.71-17.25,8.71-24.76.02-3.76-.78-7.33-2.3-10.53-2.29-4.78-6.12-8.6-10.8-11.59-4.7-3.01-10.31-5.27-16.65-7.06l-1.35,4.85,1.24,4.85c15.78-4.05,30.81-9.77,43.81-17.57,12.97-7.8,23.94-17.7,31.28-30.09l.05-.05.02-.02c3.99-7.01,6.14-13.41,6.16-19.51,0-3.64-.82-7.14-2.42-10.23-2.82-5.44-7.75-9.47-13.87-12.45-9.22-4.53-21.46-7.14-36.31-8.8-14.83-1.61-32.23-2.21-51.49-2.21-23.01,0-48.65.83-75.59,1.7l-2.66.09-1.42,2.25s-4.01,6.4-9.21,14.58c-5.2,8.2-11.57,18.21-16.25,25.39l-5.22,7.98,27.1-.62-.13-5-4.33-2.51c-23.89,41.76-55.5,101.77-80.78,144.55l-4.34,7.36,8.53.23c12.22.3,25.5.41,37.56.41,21.82,0,39.62-.36,39.64-.36l-.07-5.01v5.01-5.01Z"/>
    </g>
    <g id="g190">
      <path id="path192" class="cls-5" d="m905.39,1208.85c-29.97.56-48.32-.11-48.32-.11,25.68-43.18,60.78-100.86,89.36-151.68,32.07-1,63.74-1.37,63.74-1.37-25.49,39.92-78.64,112.14-104.79,153.17"/>
    </g>
    <g id="g194">
      <path id="path196" class="cls-5" d="m905.39,1208.85l-.1-5.01c-8.68.15-16.37.22-22.93.22-7.98,0-14.29-.08-18.58-.16-2.13-.05-3.79-.08-4.88-.13-1.1-.04-1.64-.05-1.64-.05l-.18,5.02,4.31,2.57c25.65-43.14,60.78-100.85,89.42-151.78l-4.36-2.47.15,5.01c15.99-.48,31.92-.84,43.84-1.02,11.92-.22,19.8-.32,19.82-.32l-.07-5.04-4.2-2.7c-12.66,19.79-32.29,47.81-52.04,76-19.75,28.17-39.6,56.49-52.79,77.18l4.23,2.69-.1-5.01.1,5.01,4.21,2.69c12.98-20.33,32.81-48.63,52.53-76.8,19.76-28.18,39.42-56.22,52.29-76.32l5.02-7.84-9.29.1s-31.73.38-63.88,1.36l-2.82.1-1.39,2.47c-28.5,50.71-63.6,108.35-89.29,151.55l-4.33,7.29,8.44.3c.06,0,9.36.34,25.48.34,6.6,0,14.37-.05,23.11-.21l2.69-.05,1.44-2.28"/>
    </g>
    <g id="g198">
      <path id="path200" class="cls-5" d="m1028.71,1171.02s-14.09-.12-34.64.21c0,0-4.74,9.57-6.33,18.06,0,0,14.38-.27,30.85-1.06,0,0,5.93-8.45,10.12-17.21m-6.17,36.56l2.93-5.66c-12.14,2.7-25.17,3.83-38.3,4.12-39.1.46-53.93-12.37-43.65-25.85,10.83-14.41,38.57-24.37,64.25-25.97,18.01-1.23,33,.46,41.19,4.07,5.7-11.04,11.11-21.74,14.88-29.79,0,0-16.04.06-28.54.34-2.23,8.49-7.47,19.84-7.47,19.84-28.95,1.01-54.47,1.36-54.47,1.36,11.5-21.34,17.02-27.29,34.77-34.97,16.55-6.83,68.08-17.36,92.48-.05,22.97,15.53-18.25,62.92-41.16,91.72-18.53.11-36.89.84-36.89.84"/>
    </g>
    <g id="g202">
      <path id="path204" class="cls-5" d="m1028.71,1171.02l.05-5.03s-2.17,0-5.99,0c-6.04,0-16.2.04-28.79.25l-3.05.04-1.35,2.74c-.08.21-4.94,9.84-6.76,19.36l-1.14,6.07,6.17-.13s14.42-.27,30.96-1.06l2.45-.09,1.42-2.04c.08-.1,6.12-8.69,10.56-17.91l3.43-7.15-7.9-.06-.05,5.03-4.5-2.18c-1.97,4.11-4.44,8.28-6.38,11.39-.98,1.56-1.82,2.85-2.42,3.75l-.71,1.03-.22.34,4.12,2.89-.25-5.01c-8.19.39-15.88.64-21.49.81-5.64.19-9.2.23-9.2.23l.08,5.04,4.93.93c.7-3.71,2.19-7.99,3.48-11.28.67-1.62,1.28-3.02,1.73-4l.51-1.13.18-.35-4.49-2.24.08,5.02c12.52-.19,22.65-.22,28.63-.22h5.91l.03-5.01-4.5-2.18m-1.67,38.74l4.45,2.32,7.9-15.22-10.51,2.35c-11.67,2.61-24.41,3.72-37.32,3.98h.04l-1.96.02c-14.41.03-25.06-1.95-31.56-4.75-3.27-1.41-5.44-2.97-6.66-4.37-1.2-1.38-1.53-2.43-1.55-3.58,0-1.22.49-2.92,2.13-5.09h0s.02-.03.02-.03c4.49-6.03,13.42-11.88,24.39-16.11,10.95-4.3,23.86-7.08,36.18-7.84l.03-.03c3.82-.25,7.49-.38,10.99-.38,12.44-.02,22.59,1.71,27.84,4.05l4.32,1.92,2.15-4.2c5.7-11.11,11.13-21.82,14.95-29.98l3.36-7.18-7.9.03s-16.06.04-28.65.35l-3.78.08-.96,3.65c-1.02,3.87-2.81,8.71-4.34,12.5-.78,1.9-1.48,3.54-2,4.69l-.61,1.36-.2.48,4.54,2.11-.16-5.02c-14.45.51-28.05.84-38.02,1.05-9.98.19-16.31.29-16.33.29l.05,5.03,4.42,2.39c5.68-10.58,9.73-16.97,14.18-21.48,4.43-4.47,9.48-7.51,18.15-11.26l-1.99-4.62,1.91,4.65c4.46-1.84,12.33-4.18,21.57-5.98,9.26-1.81,19.97-3.11,30.36-3.11,14.04-.06,27.38,2.5,35.75,8.51l.04.03.05.05c1.73,1.15,2.75,2.38,3.46,3.81.69,1.41,1.09,3.12,1.09,5.23.03,4.09-1.55,9.63-4.47,15.82-4.33,9.27-11.49,19.94-19.29,30.34-7.79,10.42-16.18,20.59-23.05,29.21l3.91,3.13-.05-5.01c-18.63.1-37.01.82-37.03.82l.18,5.03,4.45,2.32-4.45-2.32.21,5.01s4.55-.15,11.44-.37c6.88-.2,16.07-.4,25.27-.47l2.4-.03,1.5-1.86c9.03-11.36,21.09-25.81,30.97-40.2,4.97-7.21,9.37-14.41,12.62-21.34,3.25-6.96,5.38-13.63,5.4-20.09,0-3.34-.61-6.66-2.1-9.68-1.47-3.02-3.82-5.68-6.84-7.7l-2.81,4.15,2.9-4.1c-11.3-7.93-26.42-10.32-41.54-10.36-11.22,0-22.48,1.41-32.28,3.31-9.8,1.92-18.03,4.31-23.47,6.55l-.03.02h-.05c-9.1,3.94-15.67,7.72-21.31,13.45-5.61,5.73-10.06,12.98-15.86,23.75l-4.05,7.51,8.52-.12s25.57-.35,54.6-1.34l3.07-.12,1.29-2.8c.05-.14,5.31-11.47,7.75-20.67l-4.84-1.27.09,5.03c6.22-.15,13.35-.24,18.91-.29,5.55-.05,9.55-.07,9.55-.07l-.02-5.01-4.54-2.14c-3.7,7.92-9.11,18.58-14.78,29.65l4.45,2.28,2.03-4.58c-7.56-3.28-18.53-4.87-31.88-4.92-3.73,0-7.64.16-11.67.42h.02c-13.36.83-27.14,3.83-39.21,8.49-12.02,4.75-22.37,11.07-28.73,19.45h.03c-2.59,3.36-4.2,7.17-4.2,11.16-.03,3.77,1.53,7.4,4.07,10.25,3.85,4.29,9.62,7.24,17.18,9.31,7.58,2.07,17.07,3.2,28.55,3.2h2.14c13.34-.29,26.69-1.42,39.28-4.23l-1.09-4.91-4.44-2.32-6.91,13.32,8.63-.33-.21-5.01Z"/>
    </g>
    <g id="g206">
      <path id="path208" class="cls-5" d="m1158.92,1206.24c-65.88,1.85-75.13-12.01-56.76-35.58,0,0,30.3-.17,52.75.36,0,0-6.76,10.97-7.57,14.21,0,0,21.52.12,34.03-.15,2.73-4.41,5.13-12.25,5.13-12.25-35.72-8.91-76.98-17.01-62.11-38.83,13.78-19.12,54.29-28.74,88.65-28.47,62.06.32,58.28,19.28,46.24,37.61,0,0-28.73.54-55.35.7,4.13-7.62,8.37-16.31,8.37-16.31,0,0-16.09.08-31.87.59-3.63,5.81-7.68,14.34-7.68,14.34,27.06,7.04,79.08,16.58,62.82,39.73-11.39,15.21-42.71,23.04-76.65,24.06"/>
    </g>
    <g id="g210">
      <path id="path212" class="cls-5" d="m1158.92,1206.24l-.15-5.01c-3.86.09-7.53.13-11,.13-19.01.06-32.1-1.63-39.77-4.36-3.85-1.37-6.23-2.92-7.47-4.3-1.24-1.38-1.62-2.48-1.67-4.19,0-1.5.48-3.56,1.67-6.12,1.2-2.5,3.07-5.42,5.57-8.62l-3.94-3.11.04,5.01s5.14-.04,12.78-.04c10.84,0,26.73.08,39.81.39l.12-5.01-4.27-2.65s-1.72,2.81-3.57,6.04c-.92,1.62-1.87,3.35-2.7,4.94-.81,1.66-1.45,2.97-1.9,4.62l-1.58,6.2,6.41.05s5.01.03,11.61.03c7.08,0,16-.03,22.56-.16l2.71-.05,1.44-2.32c1.7-2.76,3.02-5.98,4.02-8.65,1.01-2.68,1.63-4.7,1.64-4.78l1.56-5.05-5.13-1.27c-15.37-3.84-31.57-7.51-43.54-11.99-5.98-2.2-10.87-4.65-13.89-7.08-1.52-1.19-2.54-2.37-3.16-3.4-.58-1.04-.83-1.87-.83-2.88,0-1.31.48-3.2,2.24-5.77l-4.14-2.85,4.07,2.96c2.83-3.95,7.28-7.7,13.02-11,17.16-10.01,45.32-15.46,70.11-15.41h1.43c20.26.07,33.15,2.3,40.21,5.38,3.56,1.53,5.61,3.15,6.68,4.64,1.1,1.47,1.49,2.78,1.53,4.64.1,3.66-2.43,9.35-6.34,15.16l4.2,2.78-.1-5.02s-7.17.15-17.68.28c-10.49.17-24.32.35-37.58.39v5.05s4.43,2.42,4.43,2.42c4.21-7.74,8.44-16.51,8.47-16.56l3.53-7.27-8.08.05s-16.14.08-32,.61l-2.67.09-1.4,2.26c-3.89,6.22-7.93,14.76-7.96,14.85l-2.63,5.49,5.9,1.53c11.92,3.11,28.25,6.63,41.32,11.37,6.52,2.36,12.18,5.06,15.85,7.83,1.83,1.37,3.13,2.74,3.91,3.95.76,1.24,1.05,2.22,1.05,3.32,0,1.31-.46,3.09-2.17,5.54l4.11,2.88-4.01-3.01c-4.55,6.19-14.32,11.77-27.29,15.53-12.93,3.82-28.89,6.03-45.53,6.52h0l.15,5.01.14,5.02c17.33-.51,34-2.76,48.06-6.91,14.04-4.18,25.62-10.13,32.45-19.13l.06-.07.04-.07c2.57-3.59,4.01-7.42,3.99-11.3.03-3.2-1.01-6.2-2.64-8.75-2.9-4.43-7.34-7.63-12.53-10.44-7.8-4.16-17.53-7.35-27.32-10.08-9.76-2.71-19.55-4.93-27.17-6.91l-1.24,4.86,4.53,2.14s.24-.46.66-1.35c1.27-2.58,4.21-8.42,6.74-12.47l-4.24-2.67.17,5.02c7.85-.25,15.78-.42,21.75-.5,6-.08,9.98-.12,9.98-.12l-.04-4.99-4.51-2.21s-1.03,2.14-2.6,5.23c-1.57,3.13-3.64,7.17-5.66,10.88l-4.07,7.5,8.49-.07c26.66-.15,55.41-.7,55.43-.7l2.64-.04,1.45-2.22c4.2-6.51,7.9-13.26,7.98-20.69.03-3.68-1.1-7.55-3.58-10.75-3.74-4.86-9.83-8.11-18.59-10.38-8.79-2.25-20.52-3.47-36.23-3.55h.02-1.49c-17.48,0-36.27,2.43-52.69,7.37-8.23,2.46-15.84,5.56-22.44,9.36-6.59,3.8-12.17,8.34-16.12,13.83l-.05.05-.04.07c-2.53,3.69-4,7.52-4,11.43,0,2.88.85,5.67,2.24,8.02,2.52,4.13,6.4,7.12,11.03,9.75,6.97,3.88,15.84,6.87,25.57,9.64,9.69,2.72,20.2,5.19,30.19,7.67l1.22-4.88-4.8-1.46-.09.29c-.21.7-.85,2.63-1.71,4.78-.81,2.14-1.89,4.56-2.8,5.96l4.27,2.68-.11-5.02c-6.41.13-15.32.16-22.35.16-6.57,0-11.55-.04-11.55-.04l-.03,5.04,4.85,1.24v-.05c.11-.31.66-1.57,1.34-2.91,1.07-2.04,2.48-4.54,3.64-6.51.57-.96,1.07-1.82,1.44-2.41l.57-.93,4.62-7.46-8.76-.21c-13.26-.3-29.17-.38-40.05-.38-7.67,0-12.85.04-12.85.04h-2.42s-1.49,1.93-1.49,1.93c-2.83,3.6-5.08,7.08-6.73,10.52-1.63,3.43-2.65,6.89-2.65,10.42-.05,3.98,1.5,7.98,4.33,10.98,4.29,4.58,10.71,7.3,19.54,9.17,8.88,1.85,20.35,2.77,35.06,2.77,3.57,0,7.33-.05,11.28-.16h0"/>
    </g>
    <g id="g214">
      <path id="path216" class="cls-5" d="m1320.16,1203.67c-50.92-.39-53.74-11.68-47.1-24.33,7.32-13.72,18.12-32.05,29.33-51.02l-20.27-.08c5.14-10.25,10.28-18.58,10.28-18.58,6.79,0,14.22-.05,21.2-.3,6.61-10.69,12.57-21.15,17.77-30.51,30.16-1.94,61.38-3.64,61.38-3.64-6.24,10.04-13.28,21.43-21.35,33.37,16.82-.3,52.04-.57,66.57-1.09l-33.46,21.22c.55-.79-31.4-.13-46.86,0-12.88,19.58-26.22,39.02-35.31,53.64,7.77.39,19.05.15,19.05.15,6.62-7.67,13.21-17.28,13.21-17.28,24.88-.34,47.49-.04,47.49-.04-13.99,26.39-35.31,38.95-81.92,38.49"/>
    </g>
    <g id="g218">
      <path id="path220" class="cls-5" d="m1320.16,1203.67l.03-5.01c-19.13-.14-31.2-1.92-37.73-4.38-3.3-1.2-5.09-2.51-5.93-3.51-.84-1.01-1.03-1.63-1.07-2.81-.03-1.4.65-3.66,2.04-6.29l-.03.05c7.24-13.54,18.02-31.86,29.25-50.83l4.46-7.53-29.03-.11-.03,5,4.48,2.26c2.52-5.01,5.04-9.59,6.93-12.89.95-1.65,1.74-2.99,2.29-3.91.54-.91.84-1.38.85-1.38l-4.27-2.65.02,5.03c6.79-.02,14.29-.06,21.36-.31l2.67-.09,1.42-2.28c6.66-10.8,12.66-21.32,17.88-30.7l-4.38-2.46.34,5.03c15.04-.98,30.38-1.9,41.95-2.56,11.58-.68,19.36-1.1,19.37-1.1l-.27-5.01-4.24-2.65c-6.26,10.05-13.26,21.37-21.26,33.2l-5.42,8,9.66-.15c16.79-.3,51.96-.59,66.63-1.11l-.15-5.01-2.7-4.24-33.45,21.21,2.69,4.26,4.12,2.86c.44-.64.9-1.68.89-2.89.02-1.61-.8-2.9-1.37-3.48-1.2-1.14-1.73-1.17-2.13-1.36l-1.34-.28c-1.04-.12-2.17-.17-3.8-.21-1.63-.03-3.62-.04-5.9-.04-10.63,0-27.47.29-37.39.39h-2.66s-1.47,2.26-1.47,2.26c-12.83,19.53-26.18,38.94-35.37,53.71l-4.51,7.25,8.5.44c3.58.17,7.72.24,11.28.24,4.52,0,8.1-.08,8.13-.08l2.21-.05,1.46-1.68c6.89-7.99,13.51-17.64,13.55-17.72l-4.11-2.85.06,5.01c8.96-.11,17.65-.15,25.08-.15,6.55,0,12.12.03,16.06.06,3.93.04,6.21.06,6.23.06l.06-5.02-4.44-2.35c-6.58,12.34-14.37,20.95-25.87,26.84-11.53,5.87-27.16,9-49.19,8.98h-2.4l-.03,5.01-.05,5.01c.83.02,1.66.02,2.48.02,22.92,0,40.16-3.21,53.72-10.07,13.56-6.86,23.03-17.51,30.18-31.09l3.84-7.28-8.2-.1s-9.24-.13-22.4-.13c-7.46,0-16.19.02-25.22.17l-2.6.02-1.46,2.14s-.39.59-1.11,1.57c-2.1,2.99-7,9.75-11.78,15.27l3.8,3.3-.13-5.03s-.85.03-2.28.06c-1.42,0-3.4.03-5.61.03-3.47,0-7.5-.05-10.77-.21l-.26,5.01,4.26,2.65c8.99-14.44,22.34-33.91,35.23-53.54l-4.18-2.75.04,5.01c10.01-.06,26.84-.4,37.3-.4,2.82,0,5.17.05,6.73.1l1.6.07h.08l.48-3.23-1.01,3.1.53.13.48-3.23-1.01,3.1,1.47-4.49-2.69,3.9,1.22.59,1.47-4.49-2.69,3.9,2.8-4.08-4.04,2.85,1.24,1.23,2.8-4.08-4.04,2.85,4.08-2.88h-4.98c0,1.15.45,2.25.91,2.88l4.08-2.88h-4.98,4.98l-4.1-2.86c-.44.61-.89,1.68-.89,2.86h4.98l-4.1-2.86,6.8,7.13,49.08-31.15-18.5.66c-14.37.52-49.61.8-66.48,1.09l.1,5.02,4.14,2.82c8.15-12.04,15.23-23.51,21.47-33.52l5.09-8.18-9.61.52s-31.26,1.67-61.44,3.63l-2.73.17-1.33,2.38c-5.17,9.34-11.09,19.69-17.65,30.31l4.26,2.64-.18-5.03c-6.88.26-14.25.31-21.01.31h-2.8l-1.46,2.38c-.05.08-5.26,8.49-10.49,18.98l-3.64,7.22,28.37.11v-5.01s-4.31-2.57-4.31-2.57c-11.22,18.99-22.03,37.35-29.44,51.22l-.02.02c-1.74,3.37-3.15,6.96-3.19,10.97-.03,3.23,1.13,6.72,3.56,9.41,3.64,4.09,9.18,6.61,17.29,8.43,8.13,1.79,19.05,2.79,33.84,2.89"/>
    </g>
    <g id="g222">
      <path id="path224" class="cls-5" d="m826.68,1085.98s-25.59-.15-43.22.23c0,0-11.33,22.65-22.41,40.57,17.99.13,42.03-.5,42.03-.5,0,0,11.52-19.77,23.6-40.29m-30.99,68.53s-30.51-.13-50.18.32c0,0-12.81,24.74-24.85,44.24,21.41.16,48.98-.56,48.98-.56,0,0,12.73-21.63,26.05-44.01m-74.22,77.23s-42.87.79-77-.08c25.37-42.94,57.05-102.95,80.8-144.59l-17.56.38c9.43-14.42,25.48-40.02,25.48-40.02,110-3.57,197.74-6.21,169.03,43.94-13.62,23.01-41.14,37.48-72.03,45.38,24.06,6.75,34.63,20.29,18.17,46.43-18.01,28.53-56.72,48.46-126.9,48.56"/>
    </g>
    <g id="g226">
      <path id="path228" class="cls-5" d="m826.68,1085.98l.03-5.03s-5.15-.02-12.42-.02c-8.95,0-21.14.05-30.94.25l-3.01.06-1.37,2.7s-.68,1.39-1.91,3.78c-3.67,7.16-12.1,23.19-20.26,36.4l-4.72,7.6,8.94.08c1.85.02,3.75.02,5.68.02,17.05,0,36.49-.5,36.51-.5l2.79-.09,1.41-2.4s2.88-4.96,7.27-12.46c4.4-7.5,10.29-17.58,16.33-27.83l4.43-7.51-8.73-.06-.03,5.03-4.32-2.57c-12.09,20.54-23.61,40.34-23.61,40.34l4.32,2.52-.13-5s-4.84.12-11.79.24c-6.96.14-16.04.27-24.47.27-1.91,0-3.79,0-5.61-.04l-.05,5.04,4.26,2.65c11.26-18.2,22.6-40.9,22.64-40.96l-4.49-2.26.12,5.03c9.66-.22,21.8-.27,30.71-.27,7.24,0,12.35.03,12.36.03l.03-5.01-4.32-2.57m-26.67,71.09l.03-5.02s-4.69-.02-11.59-.02c-10.7,0-26.68.06-38.72.33l-2.98.05-1.37,2.64s-.78,1.53-2.16,4.14c-4.13,7.83-13.58,25.36-22.49,39.79l-4.7,7.58,8.92.08c2.35.02,4.8.02,7.27.02,19.99,0,41.85-.58,41.89-.58l2.76-.09,1.4-2.37s3.18-5.41,8.04-13.6c4.86-8.2,11.38-19.19,18.02-30.39l4.51-7.55-8.79-.04-.03,5.02-4.29-2.57c-13.33,22.39-26.09,43.99-26.1,44l4.33,2.58-.14-5.03s-5.44.15-13.37.28c-7.95.16-18.34.3-28.25.3-2.44,0-4.85-.02-7.19-.03l-.05,5.03,4.27,2.65c12.18-19.73,25-44.54,25.03-44.61l-4.45-2.28.11,5.01c11.89-.29,27.86-.33,38.51-.33,6.88,0,11.53.02,11.55.02l.02-5.02-4.29-2.57,4.29,2.57Zm-74.22,77.23l-.09-5.01s-4.43.06-11.59.15c-7.14.09-17.02.17-27.89.17-12.01,0-25.21-.1-37.31-.42l-.13,5.03,4.31,2.56c25.47-43.11,57.15-103.14,80.85-144.66l4.4-7.71-26.43.59.12,5.01,4.2,2.77c9.47-14.51,25.53-40.1,25.53-40.11l-4.25-2.68.17,5.01c26.94-.88,52.52-1.68,75.29-1.68,29.02-.04,53.57,1.38,70.24,5.42,8.34,2.02,14.62,4.73,18.43,7.82,1.93,1.52,3.22,3.11,4.1,4.75.82,1.65,1.27,3.45,1.29,5.61,0,3.63-1.37,8.46-4.83,14.53l4.35,2.48-4.32-2.58c-6.28,10.64-15.9,19.45-27.81,26.62-11.91,7.18-26.06,12.62-41.14,16.47l-18.13,4.65,18,5.06c7.62,2.12,13.49,4.93,17.14,8.18,1.84,1.61,3.13,3.31,3.99,5.13.87,1.81,1.33,3.77,1.34,6.18.03,4.73-2,11.21-7.17,19.41-8.42,13.31-21.65,24.75-41.56,32.97-19.9,8.24-46.5,13.21-81.12,13.26h-.08l.09,5.01v5.01c35.57-.04,63.42-5.1,84.93-13.99,21.49-8.88,36.62-21.68,46.21-36.92,5.75-9.15,8.7-17.25,8.71-24.76.01-3.76-.78-7.33-2.3-10.53-2.3-4.78-6.11-8.6-10.79-11.59-4.71-3.01-10.33-5.27-16.67-7.06l-1.36,4.85,1.24,4.85c15.8-4.05,30.82-9.77,43.81-17.57,12.97-7.8,23.94-17.7,31.26-30.09l.04-.05.02-.02c4-7.01,6.15-13.41,6.16-19.53,0-3.62-.83-7.12-2.42-10.21-2.83-5.44-7.75-9.47-13.86-12.45-9.21-4.52-21.46-7.13-36.31-8.79-14.82-1.61-32.22-2.21-51.48-2.21-23.01,0-48.66.83-75.61,1.7l-2.68.09-1.4,2.25s-4.01,6.4-9.19,14.58c-5.2,8.2-11.56,18.21-16.27,25.38l-5.21,8,27.09-.62-.12-5-4.34-2.49c-23.83,41.74-55.5,101.73-80.78,144.53l-4.34,7.36,8.53.23c12.21.3,25.5.41,37.56.41,21.83,0,39.62-.36,39.65-.36l-.08-5.01v5.01s0-5.01,0-5.01Z"/>
    </g>
    <g id="g230">
      <path id="path232" class="cls-5" d="m908.13,1208.85c-29.99.56-48.3-.11-48.3-.11,25.64-43.18,60.79-100.86,89.34-151.68,32.08-1,63.76-1.37,63.76-1.37-25.48,39.92-78.64,112.14-104.8,153.17"/>
    </g>
    <g id="g234">
      <path id="path236" class="cls-5" d="m908.13,1208.85l-.09-5.01c-8.69.15-16.38.22-22.92.22-8.01,0-14.3-.08-18.57-.16-2.15-.05-3.78-.08-4.88-.13-1.1-.04-1.66-.05-1.66-.05l-.16,5.02,4.3,2.57c25.64-43.14,60.78-100.85,89.42-151.78l-4.38-2.47.16,5.01c16.01-.48,31.93-.84,43.83-1.02,11.93-.22,19.82-.32,19.83-.32l-.05-5.04-4.22-2.7c-12.65,19.79-32.3,47.81-52.03,76-19.74,28.17-39.59,56.49-52.78,77.18l4.22,2.69-.09-5.01.09,5.01,4.23,2.69c12.98-20.33,32.78-48.63,52.52-76.8,19.74-28.18,39.41-56.22,52.25-76.32l5.01-7.84-9.28.1s-31.71.38-63.82,1.36l-2.85.1-1.37,2.47c-28.51,50.71-63.61,108.35-89.31,151.55l-4.33,7.29,8.47.3s9.32.34,25.47.34c6.62,0,14.37-.05,23.12-.21l2.68-.05,1.45-2.28"/>
    </g>
    <g id="g238">
      <path id="path240" class="cls-5" d="m1031.43,1171.02s-14.08-.12-34.64.21c0,0-4.76,9.57-6.32,18.06,0,0,14.36-.27,30.84-1.06,0,0,5.94-8.45,10.12-17.21m-6.13,36.56l2.89-5.66c-12.14,2.7-25.17,3.83-38.32,4.12-39.08.46-53.96-12.37-43.63-25.85,10.83-14.41,38.57-24.37,64.24-25.97,17.98-1.23,33.04.46,41.19,4.07,5.71-11.04,11.11-21.74,14.89-29.79,0,0-16.08.06-28.58.34-2.2,8.49-7.38,19.84-7.38,19.84-29.03,1.01-54.51,1.36-54.51,1.36,11.49-21.34,17-27.29,34.75-34.97,16.56-6.83,68.08-17.36,92.46-.05,23,15.53-18.24,62.92-41.14,91.72-18.54.11-36.87.84-36.87.84"/>
    </g>
    <g id="g242">
      <path id="path244" class="cls-5" d="m1031.43,1171.02l.05-5.03s-2.16,0-6,0c-6,0-16.17.04-28.77.25l-3.04.04-1.38,2.73c-.08.22-4.96,9.85-6.74,19.38l-1.12,6.06,6.14-.13s14.42-.27,30.98-1.06l2.45-.09,1.44-2.04c.05-.12,6.09-8.7,10.52-17.91l3.4-7.15-7.89-.06-.05,5.03-4.51-2.18c-1.97,4.11-4.43,8.28-6.36,11.39-.97,1.56-1.82,2.85-2.41,3.76l-.7,1.03-.23.35,4.09,2.87-.23-5.01c-8.21.39-15.88.64-21.51.81-5.64.19-9.18.23-9.18.23l.07,5.04,4.94.89c.68-3.67,2.15-7.95,3.46-11.24.65-1.6,1.27-3.02,1.72-4l.51-1.13.18-.35-4.49-2.24.08,5.02c12.53-.19,22.65-.22,28.61-.22h5.92l.04-5.01-4.51-2.18m-1.62,38.74l4.44,2.31,7.84-15.2-10.46,2.34c-11.69,2.61-24.41,3.72-37.35,3.98h.05l-1.96.02c-14.4.03-25.05-1.95-31.57-4.75-3.26-1.41-5.43-2.97-6.65-4.35-1.21-1.41-1.54-2.46-1.56-3.6,0-1.22.5-2.91,2.16-5.1h.02l.02-.03c4.46-6.03,13.39-11.88,24.35-16.11,10.96-4.3,23.89-7.08,36.18-7.84l.05-.03c3.8-.25,7.49-.38,10.95-.38,6.25,0,11.89.42,16.64,1.15,4.74.72,8.63,1.74,11.22,2.9l4.31,1.93,2.17-4.21c5.73-11.12,11.15-21.84,14.98-29.98l3.4-7.2-7.95.03s-16.1.04-28.68.35l-3.79.08-.94,3.68c-1,3.87-2.78,8.71-4.32,12.49-.76,1.9-1.47,3.52-1.97,4.68l-.8,1.83,4.56,2.1-.18-5.02c-14.48.51-28.08.84-38.07,1.05-9.98.19-16.32.29-16.34.29l.07,5.03,4.41,2.39c5.69-10.58,9.75-16.97,14.18-21.48,4.43-4.47,9.48-7.51,18.15-11.26l-1.98-4.62,1.9,4.65c4.47-1.84,12.35-4.18,21.59-5.98,9.26-1.81,19.96-3.11,30.35-3.11,14.04-.06,27.37,2.5,35.73,8.51l.05.04.06.04c1.72,1.16,2.74,2.38,3.46,3.81.7,1.41,1.08,3.14,1.1,5.27,0,4.07-1.56,9.62-4.47,15.79-4.33,9.26-11.5,19.93-19.29,30.35-7.8,10.4-16.21,20.57-23.05,29.19l3.91,3.13-.02-5.01c-18.66.1-37.03.82-37.06.82l.21,5.03,4.44,2.31-4.44-2.31.17,5.01s4.56-.15,11.44-.37c6.89-.2,16.08-.4,25.29-.47l2.39-.03,1.51-1.86c9.03-11.36,21.07-25.81,30.97-40.19,4.93-7.22,9.35-14.41,12.61-21.35,3.23-6.95,5.36-13.62,5.4-20.05,0-3.35-.62-6.68-2.13-9.71-1.47-3.02-3.82-5.68-6.84-7.7l-2.81,4.15,2.91-4.1c-11.29-7.93-26.42-10.32-41.53-10.36-11.21,0-22.48,1.41-32.27,3.31-9.8,1.92-18.06,4.31-23.48,6.55l-.04.02h-.05c-9.1,3.94-15.67,7.72-21.3,13.45-5.64,5.73-10.08,12.98-15.88,23.75l-4.04,7.51,8.52-.12s25.54-.35,54.63-1.34l3.09-.12,1.29-2.83c.04-.12,5.28-11.45,7.69-20.66l-4.87-1.26.11,5.03c6.22-.15,13.35-.24,18.92-.29,5.58-.05,9.57-.07,9.58-.07l-.03-5.01-4.52-2.15c-3.74,7.93-9.13,18.59-14.83,29.66l4.46,2.28,2.02-4.58c-3.79-1.67-8.38-2.87-13.76-3.68-5.35-.82-11.48-1.25-18.14-1.25-3.72,0-7.62.16-11.65.42h0c-13.34.83-27.12,3.83-39.16,8.49-12.03,4.75-22.38,11.07-28.75,19.45l.03-.03c-2.6,3.39-4.22,7.19-4.22,11.2-.03,3.77,1.54,7.41,4.08,10.26,3.85,4.3,9.63,7.22,17.2,9.29,7.57,2.06,17.05,3.19,28.53,3.19h2.13c13.34-.29,26.71-1.42,39.3-4.23l-1.09-4.91-4.44-2.3-6.86,13.31,8.59-.33-.17-5.01Z"/>
    </g>
    <g id="g246">
      <path id="path248" class="cls-5" d="m1161.62,1206.24c-65.87,1.85-75.11-12.01-56.72-35.58,0,0,30.31-.17,52.76.36,0,0-6.75,10.97-7.57,14.21,0,0,21.48.12,34.01-.15,2.73-4.41,5.15-12.25,5.15-12.25-35.73-8.91-76.98-17.01-62.12-38.83,13.8-19.12,54.29-28.74,88.65-28.47,62.04.32,58.25,19.28,46.22,37.61,0,0-28.71.54-55.31.7,4.16-7.62,8.33-16.31,8.33-16.31,0,0-16.09.08-31.81.59-3.67,5.81-7.73,14.34-7.73,14.34,27.07,7.04,79.08,16.58,62.81,39.73-11.36,15.21-42.7,23.04-76.66,24.06"/>
    </g>
    <g id="g250">
      <path id="path252" class="cls-5" d="m1161.62,1206.24l-.14-5.01c-3.87.09-7.52.13-10.99.13-19.01.06-32.12-1.63-39.77-4.36-3.84-1.37-6.21-2.92-7.45-4.3-1.26-1.38-1.62-2.48-1.67-4.19,0-1.5.49-3.56,1.68-6.11,1.19-2.51,3.07-5.43,5.59-8.63l-3.96-3.11.03,5.01s5.16-.04,12.78-.04c10.87,0,26.74.08,39.84.39l.12-5.01-4.28-2.65s-1.72,2.81-3.56,6.04c-.91,1.62-1.87,3.35-2.69,4.94-.8,1.66-1.46,2.97-1.9,4.61l-1.62,6.21,6.44.05s4.99.03,11.58.03c7.08,0,16.01-.03,22.58-.16l2.72-.05,1.44-2.32c1.7-2.76,3.02-5.98,4.03-8.65,1-2.64,1.62-4.7,1.63-4.78l1.58-5.05-5.14-1.27c-15.37-3.84-31.57-7.51-43.56-11.99-5.97-2.2-10.86-4.67-13.88-7.08-1.52-1.19-2.56-2.4-3.15-3.4-.59-1.04-.84-1.87-.84-2.88,0-1.34.48-3.2,2.23-5.77l-4.13-2.85,4.06,2.96c2.84-3.95,7.31-7.7,13.02-11,17.17-10.01,45.32-15.46,70.14-15.41h1.39c20.26.07,33.14,2.3,40.22,5.38,3.55,1.53,5.57,3.15,6.67,4.64,1.1,1.45,1.49,2.78,1.52,4.64.09,3.66-2.42,9.35-6.32,15.17l4.18,2.77-.1-5.02s-7.17.15-17.65.28c-10.51.17-24.32.35-37.59.39l.03,5.05,4.4,2.43c4.25-7.79,8.44-16.56,8.45-16.61l3.43-7.23-7.99.05s-16.13.08-31.92.61l-2.66.09-1.43,2.25c-3.91,6.23-7.96,14.78-8,14.85l-2.63,5.5,5.89,1.53c11.93,3.11,28.26,6.63,41.33,11.37,6.52,2.36,12.17,5.06,15.85,7.83,1.83,1.37,3.13,2.74,3.91,3.95.76,1.24,1.04,2.22,1.07,3.32,0,1.31-.48,3.09-2.19,5.54l4.1,2.88-4.01-3c-2.28,3.08-5.82,6.04-10.45,8.66-13.92,8.01-37.4,12.66-62.34,13.38h0l.14,5.01.15,5.02c17.33-.51,34.01-2.76,48.08-6.91,7.02-2.06,13.42-4.62,18.92-7.75,5.5-3.15,10.14-6.86,13.52-11.38l.09-.15c2.56-3.59,3.99-7.42,3.99-11.3.02-3.2-1.01-6.2-2.65-8.75-2.89-4.43-7.34-7.63-12.53-10.44-7.78-4.16-17.53-7.35-27.3-10.08-9.76-2.72-19.55-4.93-27.16-6.91l-1.26,4.86,4.52,2.17s.25-.48.67-1.37c1.26-2.58,4.22-8.42,6.77-12.45l-4.23-2.69.17,5.02c7.82-.25,15.75-.42,21.71-.5,5.98-.08,9.96-.12,9.97-.12l-.03-4.99-4.53-2.2s-.25.54-.71,1.46c-1.35,2.77-4.44,9.08-7.49,14.65l-4.09,7.5,8.52-.07c26.63-.15,55.36-.7,55.37-.7l2.64-.04,1.45-2.22c4.19-6.51,7.89-13.26,7.96-20.69.04-3.7-1.07-7.56-3.57-10.76-3.73-4.85-9.82-8.1-18.57-10.37-8.79-2.25-20.49-3.47-36.22-3.55h.03-1.47c-17.51,0-36.3,2.43-52.72,7.37-8.21,2.46-15.84,5.56-22.44,9.36-6.57,3.8-12.15,8.34-16.11,13.83l-.04.05-.05.07c-2.5,3.69-3.99,7.52-3.99,11.43,0,2.88.84,5.67,2.26,8.02,2.5,4.13,6.4,7.12,11.01,9.75,6.97,3.88,15.85,6.87,25.57,9.63,9.7,2.73,20.22,5.2,30.2,7.68l1.21-4.88-4.78-1.46-.1.28c-.22.71-.86,2.62-1.72,4.79-.8,2.14-1.9,4.53-2.79,5.96l4.24,2.68-.1-5.02c-6.42.13-15.32.16-22.36.16-6.56,0-11.5-.04-11.51-.04l-.03,5.04,4.85,1.24.02-.04c.09-.32.63-1.58,1.31-2.92,1.07-2.04,2.49-4.55,3.63-6.52.58-.95,1.1-1.82,1.45-2.41l.57-.94,4.58-7.43-8.74-.21c-13.26-.3-29.15-.38-40.06-.38-7.65,0-12.83.04-12.84.04h-2.42s-1.49,1.93-1.49,1.93c-2.82,3.6-5.09,7.08-6.74,10.52-1.62,3.43-2.64,6.89-2.64,10.42-.04,3.98,1.49,7.98,4.32,10.98,4.27,4.58,10.7,7.3,19.56,9.17,8.87,1.85,20.35,2.77,35.04,2.77,3.57,0,7.32-.05,11.27-.16"/>
    </g>
    <g id="g254">
      <path id="path256" class="cls-5" d="m1322.9,1203.67c-50.92-.39-53.77-11.68-47.11-24.33,7.32-13.72,18.08-32.05,29.3-51.02l-20.25-.08c5.14-10.25,10.29-18.58,10.29-18.58,6.81,0,14.22-.05,21.19-.3,6.67-10.69,12.56-21.15,17.78-30.51,30.14-1.94,61.4-3.64,61.4-3.64-6.19,10.04-13.3,21.43-21.38,33.37,16.8-.3,52.04-.57,66.56-1.09l-33.43,21.22c.59-.79-31.45-.13-46.87,0-12.85,19.58-26.19,39.02-35.27,53.64,7.73.39,19.03.15,19.03.15,6.58-7.67,13.17-17.28,13.17-17.28,24.9-.34,47.49-.04,47.49-.04-13.93,26.39-35.32,38.95-81.88,38.49"/>
    </g>
    <g id="g258">
      <path id="path260" class="cls-5" d="m1322.9,1203.67l.04-5.01c-19.16-.14-31.21-1.92-37.74-4.38-3.29-1.2-5.1-2.51-5.94-3.51-.85-1.01-1.03-1.63-1.08-2.81-.02-1.4.66-3.66,2.05-6.29v.04c7.21-13.54,17.97-31.86,29.18-50.83l4.45-7.53-28.99-.11-.03,5,4.48,2.26c2.52-5.01,5.04-9.59,6.92-12.89.97-1.65,1.76-2.99,2.3-3.91.56-.91.85-1.39.85-1.39l-4.27-2.65v5.03c6.85-.02,14.3-.06,21.38-.31l2.65-.09,1.41-2.25c6.73-10.83,12.69-21.36,17.91-30.73l-4.39-2.46.34,5.03c15.04-.98,30.38-1.9,41.96-2.56,11.57-.68,19.35-1.1,19.38-1.1l-.27-5.01-4.25-2.63c-6.2,10.01-13.26,21.33-21.27,33.18l-5.42,8,9.67-.15c16.76-.3,51.96-.59,66.64-1.11l-.18-5.01-2.68-4.24-33.45,21.22,2.7,4.24,4.06,2.92c.44-.59.97-1.67.96-2.95,0-1.61-.8-2.9-1.38-3.48-1.21-1.14-1.74-1.17-2.13-1.36l-1.32-.28c-1.05-.12-2.2-.17-3.82-.21-1.64-.03-3.62-.04-5.89-.04-10.64,0-27.5.29-37.39.39h-2.69s-1.45,2.26-1.45,2.26c-12.81,19.53-26.16,38.94-35.36,53.71l-4.49,7.25,8.49.44c3.54.17,7.68.24,11.24.24,4.54,0,8.13-.08,8.16-.08l2.22-.05,1.45-1.69c6.84-7.98,13.45-17.63,13.51-17.73l-4.12-2.83.07,5.01c8.97-.11,17.65-.15,25.08-.15,6.56,0,12.12.03,16.05.06,3.94.04,6.22.06,6.22.06l.07-5.02-4.43-2.35c-6.54,12.34-14.35,20.95-25.87,26.84-11.52,5.87-27.16,9-49.15,8.98h-2.4l-.04,5.01-.06,5.01c.83.02,1.67.02,2.5.02,22.89,0,40.14-3.21,53.68-10.07,13.59-6.86,23.06-17.51,30.21-31.09l3.81-7.28-8.18-.1s-9.24-.13-22.41-.13c-7.46,0-16.19.02-25.22.17l-2.6.02-1.48,2.14s-.39.59-1.09,1.57c-2.09,2.99-7.01,9.77-11.74,15.27l3.8,3.3-.13-5.03s-.86.03-2.29.06c-1.44,0-3.41.03-5.62.03-3.46,0-7.48-.05-10.73-.21l-.26,5.01,4.26,2.65c8.98-14.44,22.31-33.91,35.19-53.54l-4.19-2.75.05,5.01c9.98-.06,26.83-.4,37.31-.4,2.82,0,5.16.05,6.71.1l1.62.07h.08l.47-3.23-1.02,3.1.55.13.47-3.23-1.02,3.1,1.48-4.49-2.7,3.9,1.22.59,1.48-4.49-2.7,3.9,2.81-4.08-4.03,2.85,1.23,1.23,2.81-4.08-4.03,2.85,4.07-2.88h-4.97c-.02,1.16.45,2.25.9,2.88l4.07-2.88h-4.97,4.97l-4.02-2.93c-.45.58-.95,1.66-.95,2.93h4.97l-4.02-2.93,6.73,7.2,49.08-31.15-18.5.66c-14.37.52-49.63.8-66.47,1.09l.08,5.02,4.15,2.82c8.16-12.03,15.29-23.51,21.49-33.52l5.06-8.18-9.57.52s-31.3,1.67-61.46,3.63l-2.72.17-1.33,2.38c-5.2,9.34-11.07,19.69-17.66,30.29l4.25,2.67-.18-5.03c-6.86.26-14.23.31-21,.31h-2.8l-1.45,2.38c-.04.06-5.25,8.49-10.51,18.98l-3.64,7.22,28.35.11.02-5.01-4.31-2.57c-11.22,18.99-22.01,37.35-29.42,51.22l-.02.02c-1.76,3.37-3.15,6.96-3.18,10.97-.05,3.23,1.13,6.72,3.54,9.43,3.64,4.08,9.19,6.59,17.29,8.41,8.16,1.79,19.06,2.79,33.85,2.89h0"/>
    </g>
    <g id="g262">
      <path id="path264" class="cls-4" d="m744.3,1186.91l30.12,5.33,1.9-7.18"/>
    </g>
    <g id="g266">
      <path id="path268" class="cls-4" d="m1076.55,1040.52l5.62-7.62-59.14,3.04,53.52,4.58Z"/>
    </g>
    <g id="g270">
      <path id="path272" class="cls-4" d="m1078.89,1027.77l4.39-5.53-42.12,1.41,37.73,4.11Z"/>
    </g>
    <g id="g274">
      <path id="path276" class="cls-4" d="m689.55,1205l12.62-19.5-115.64,5.34,103.02,14.16Z"/>
    </g>
    <g id="g278">
      <path id="path280" class="cls-4" d="m730.36,1105.38l7.56-7.16-62.17,3.24,54.61,3.91Z"/>
    </g>
    <g id="g282">
      <path id="path284" class="cls-4" d="m726.6,1123.9l8.71-10.64-82.1,1.07,73.4,9.57Z"/>
    </g>
    <g id="g286">
      <path id="path288" class="cls-4" d="m1371.3,1164.56l-30.88.08,33.51,5.37-2.63-5.45Z"/>
    </g>
    <g id="g290">
      <path id="path292" class="cls-4" d="m998.34,1129.72l1.92-7.07-32,1.79,30.08,5.29Z"/>
    </g>
    <g id="g294">
      <path id="path296" class="cls-4" d="m910.82,1072.63l30.17,5.34-1.28-8.24-28.88,2.9Z"/>
    </g>
    <g id="g298">
      <path id="path300" class="cls-4" d="m1286.43,1158.28l7.56-7.13-58.38,1.81,50.81,5.32Z"/>
    </g>
    <g id="g302">
      <path id="path304" class="cls-4" d="m1284.59,1170.79v-5.37h-33.91l33.91,5.37Z"/>
    </g>
    <g id="g306">
      <path id="path308" class="cls-4" d="m1167.81,1113.71l35.77-8.9-95.21,3.13,59.43,5.76Z"/>
    </g>
    <g id="g312">
      <path id="path314" d="m1277.55,1003.16l-1.55,1.42,45.57-1.5,2.33-1.33"/>
    </g>
    <g id="g316">
      <path id="path318" class="cls-2" d="m1124.76,1033s-16.41.49-27.07,1.04c0,0-6.54,12.82-12.75,22.87,11.58-.26,26.41-1.11,26.41-1.11,0,0,6.6-11.24,13.41-22.81m15.74-35.29s-13.85.36-23.34.77c0,0-5.81,11.81-11.49,21.06,9.72-.25,22.7-1.01,22.7-1.01,0,0,5.93-10.27,12.13-20.82m-54.61,75.87s-23.16,1.15-41.57,1.32c13.04-22.3,29.21-53.35,41.41-74.86l-31.34.51c4.9-7.51,13.2-20.77,13.2-20.77,59.27-3.8,128.54-6.73,113.81,19.27-7.02,11.92-21.73,19.76-38.28,24.35,13.12,2.98,19.05,9.67,10.56,23.23-9.34,14.79-29.94,25.58-67.81,26.96"/>
    </g>
    <g id="g320">
      <path id="path322" class="cls-2" d="m1207.1,1047.43s-8.54.13-21.07.73c0,0-3.23,6.11-4.5,11.45,0,0,8.73-.47,18.78-1.26,0,0,3.92-5.42,6.78-10.91m-5.06,22.85l1.97-3.59c-7.43,1.92-15.41,2.93-23.42,3.36-23.79,1-32.38-6.62-25.67-15.2,7.09-9.25,24.35-15.98,40.03-17.56,10.97-1.07,20.07-.34,24.91,1.73,3.83-7.01,7.54-13.76,10.11-18.83,0,0-9.78.34-17.37.71-1.66,5.38-5.21,12.57-5.21,12.57-17.7,1.18-33.23,1.96-33.23,1.96,7.76-13.6,11.31-17.35,22.39-22.53,10.33-4.57,42.04-12.16,56.26-1.81,13.4,9.2-13.35,39.54-28.31,57.93-11.24.45-22.48,1.26-22.48,1.26"/>
    </g>
    <g id="g324">
      <path id="path326" class="cls-2" d="m1321.19,998.33c-11.93.34-29.67,1.16-36.17,1.56,2.58-4.53,4.82-9.12,9.11-16.8,11.64-1.01,26.03-1.69,40.44-1.81,0,0-6.55,8.83-13.38,17.05m-98.09,97.13c-31.07.95-39.23-4.37-29.7-17.85,15.68-1,31.98-1.84,31.98-1.84-2.17,3.9-3.59,6.46-3.59,6.46,6.31-.09,17.57-1.07,17.57-1.07,15.44-24.76,28.41-49.79,40.18-72.96,18.38-1.03,35.62-2.11,35.62-2.11-7.17,18.82-23.44,54.45-41.51,73.1-7.13,7.02-21.39,15.38-50.54,16.28"/>
    </g>
    <g id="g328">
      <path id="path330" class="cls-2" d="m1354.14,1041.73s-8.58.21-21.1.84c0,0-3.21,5.98-4.48,11.34,0,0,8.77-.46,18.83-1.32,0,0,3.88-5.32,6.76-10.87m-5.02,22.92l1.94-3.55c-7.46,1.83-15.43,2.85-23.43,3.34-23.78,1.04-32.39-6.65-25.68-15.32,7.18-9.18,24.34-15.93,40.09-17.43,10.96-1.12,20-.4,24.87,1.72,3.88-7.04,7.52-13.8,10.12-18.89,0,0-9.78.38-17.38.86-1.64,5.31-5.25,12.4-5.25,12.4-17.66,1.28-33.17,1.98-33.17,1.98,7.76-13.54,11.32-17.34,22.38-22.5,10.32-4.61,42.06-12.17,56.26-1.9,13.41,9.25-13.36,39.57-28.26,58.03-11.31.45-22.47,1.27-22.47,1.27"/>
    </g>
    <g id="g332">
      <path id="path334" class="cls-4" d="m1069.28,984.83c42.7-2.67,102.02-4.93,113.62,3.65-3.58-14.41-67-11.93-116.51-8.71,0,0-8.34,13.26-13.23,20.77l6.47-.39c4.57-7.12,9.65-15.31,9.65-15.31m12.46,20.65c-11.75,21.11-26.38,48.96-38.4,69.41,2.21-.05,4.42-.05,6.62-.09,12.51-21.76,27.17-49.72,38.46-69.65l-6.68.34Zm68.65,21.3c-1.78.66-3.63,1.2-5.45,1.72,4.42.98,8,2.39,10.46,4.39-.68-2.54-2.46-4.51-5.01-6.11m71.21,17.38c3.89-6.99,7.56-13.85,10.16-18.89,0,0-2.75.04-6.38.24-2.2,4.17-4.71,8.74-7.34,13.53-2.05-.8-4.87-1.5-8.22-1.83-.43.85-5.55-.08-5.55-.08-12.62-.47-22.27,3.08-26.68,3.34-9.68,2.91-18.49,7.49-23.46,13.15l-1.69,2.24c-2.55,3.93-1.89,7.57,2.09,10.24-.26-1.92.49-4.03,2.19-6.18,7.08-9.17,24.29-15.99,39.99-17.48,11-1.08,20.09-.32,24.9,1.74m-112.08,11.65s-9.78.59-19.64.95c-1.04,1.76-2.12,3.6-3.17,5.29,11.61-.34,26.44-1.14,26.44-1.14,0,0,6.57-11.21,13.42-22.82,0,0-2.78.15-6.72.25-5.63,9.44-10.32,17.47-10.32,17.47m255.58-22.4c-2.09-.91-4.9-1.49-8.23-1.88-4.12-.89-9.43-.42-9.43-.42-14.27.95-18.34,3.41-22.8,3.63-10.39,3.2-19.72,8.29-24.48,14.38-3.39,4.38-2.9,8.39,1.43,11.3-.26-1.92.48-4.01,2.15-6.13,7.09-9.23,24.32-15.95,40-17.53,11-1.11,20.08-.39,24.93,1.78,3.85-7.08,7.58-13.79,10.11-18.92,0,0-2.71.12-6.38.29-2.13,4.08-4.74,8.71-7.31,13.51m-173.54,44.22c-4.83,6.84-5.05,11.51-.05,14.45-.22-2.56,1-5.65,3.67-9.38,9.49-.59,19.17-1.13,25.31-1.46.63-1.05,1.71-2.94,3.09-5.46,0,0-16.32.84-32.01,1.85m206.45-72.27c-14.19-10.27-45.93-2.71-56.23,1.9-11.07,5.17-14.64,8.96-22.36,22.51,0,0,2.6-.08,6.79-.34,5.74-9.22,9.7-12.71,19.14-17.04,10.28-4.59,41.76-12.1,56.06-2-.47-2.05-1.54-3.69-3.41-5.02m-101.21-17.13c9.6-.85,21.12-1.51,32.94-1.74,2.35-3.09,3.95-5.21,3.95-5.21-14.44.13-28.81.81-40.44,1.81-4.31,7.69-6.54,12.27-9.16,16.8,1.64-.06,3.87-.2,6.57-.31,1.65-3.03,3.53-6.62,6.15-11.35m48.74,64.37c-5.15.46-9.93.78-13.42,1-.68,1.75-1.36,3.61-1.77,5.43,0,0,8.74-.45,18.8-1.27,0,0,3.93-5.41,6.8-10.89,0,0-2.52.05-6.66.19-2.01,3.22-3.75,5.54-3.75,5.54m-136.69-.12s-2.46.06-6.62.12c-2.01,3.34-3.69,5.75-3.69,5.75-5.2.37-10.01.71-13.47.94-.67,1.72-1.34,3.59-1.76,5.39,0,0,8.72-.45,18.77-1.29,0,0,3.9-5.43,6.76-10.91m105.34-46.4s-17.21,1.08-35.51,2.12c-11.8,23.18-24.76,48.19-40.23,72.95,0,0-5.5.46-10.94.77-1.84,3.25-3.05,5.43-3.05,5.43,6.34-.11,17.55-1.13,17.55-1.13,15.46-24.74,28.43-49.72,40.25-72.89,11.87-.71,23.25-1.47,29.82-1.81.74-1.96,1.52-3.81,2.12-5.44m-187.63,12.44s-7.86.47-15.97.78c-1.01,1.77-2.09,3.63-3.13,5.31,9.68-.2,22.65-.95,22.65-.95,0,0,5.94-10.29,12.16-20.96,0,0-2.81.11-6.69.2-4.93,8.59-9.02,15.62-9.02,15.62m52.6,16.49c5.75-9.24,9.78-12.63,19.18-16.99,10.25-4.58,41.75-12.11,56.03-1.98-.46-2.03-1.5-3.73-3.36-4.96-14.21-10.35-45.9-2.77-56.24,1.81-11.05,5.19-14.65,8.93-22.41,22.52,0,0,2.62-.13,6.81-.41"/>
    </g>
    <g id="g336">
      <path class="cls-6" d="m733.19,1047.42s-16.04,25.59-25.47,40.03h0l17.56-.38c-23.76,41.64-55.43,101.64-80.8,144.59h0c34.12.87,76.99.08,76.99.08h0c70.18-.1,108.89-20.03,126.9-48.55h0c16.46-26.15,5.89-39.69-18.17-46.44h0c30.89-7.89,58.4-22.36,72.03-45.38h0c21.67-37.87-23.03-45.64-93.55-45.64h0c-22.89,0-48.51.81-75.48,1.69m27.85,79.35c11.08-17.92,22.41-40.57,22.41-40.57h0c17.64-.38,43.22-.23,43.22-.23h0c-12.08,20.54-23.6,40.29-23.6,40.29h0s-19.46.53-36.47.53h0c-1.89,0-3.76,0-5.57-.03m-40.39,72.3c12.04-19.5,24.85-44.24,24.85-44.24h0c19.67-.46,50.18-.32,50.18-.32h0c-13.32,22.37-26.05,44-26.05,44h0s-21.87.58-41.78.58h0c-2.45,0-4.86,0-7.2,0m241.64-142.37l.16-.07-38.42-.58,20.95,8.47c-28.08,49.58-60.83,105.04-85.28,146.12h0s18.27.21,48.2-.35h0c26.14-41.01,79.54-114.69,105.03-154.61h0s-23.54.33-50.62,1.02m371.8,22.14h0s-.12.12-.12.12l-38.04,1.66,33.78,6.04c-4.11,7.19-8.53,14.91-13.4,22.69h0c-6.98.26-14.38.3-21.19.3h0s-5.15,8.33-10.3,18.57h0l20.26.08c-11.23,18.98-21.98,37.31-29.31,51.02h0c-6.66,12.65-3.81,23.95,47.12,24.34h0c46.56.45,67.96-12.1,81.88-38.5h0s-22.59-.29-47.49.04h0s-6.59,9.61-13.18,17.28h0s-11.28.25-19.02-.14h0c9.08-14.63,22.42-34.07,35.26-53.64h0c15.42-.14,45.89.02,45.26.8h0l35.05-22.03c-14.53.51-49.76.78-66.56,1.08h0c8.08-11.93,15.18-23.32,21.38-33.37h0s-31.26,1.71-61.4,3.64m-119.72,26.68c-34.07,0-73.63,9.61-87.24,28.45h0c-14.87,21.83,26.4,29.93,62.12,38.84h0s-2.42,7.84-5.16,12.24h0c-12.52.27-34,.15-34,.15h0c.82-3.24,7.57-14.19,7.57-14.19h0c-22.46-.54-52.76-.36-52.76-.36h0c-18.4,23.56-9.15,37.43,56.71,35.58h0c33.97-1.01,65.3-8.84,76.67-24.06h0c16.26-23.15-35.74-32.68-62.82-39.73h0s4.07-8.52,7.74-14.33h0c15.72-.51,31.81-.6,31.81-.6h0s-4.18,8.71-8.34,16.32h0c26.61-.16,55.32-.7,55.32-.7h0c12.02-18.34,15.82-37.29-46.23-37.6h-1.4Zm-203.52,9.52c-17.77,7.69-23.28,13.64-34.76,34.97h0s25.49-.35,54.52-1.35h0s5.18-11.35,7.39-19.85h0c12.5-.28,28.58-.34,28.58-.34h0c-3.79,8.05-9.2,18.76-14.9,29.79h0c-8.16-3.6-23.22-5.3-41.2-4.06h0c-25.67,1.6-53.41,11.56-64.23,25.96h0c-10.33,13.49,4.54,26.31,43.63,25.86h0c13.15-.3,26.18-1.42,38.33-4.13h0l-2.91,5.66s18.33-.73,36.89-.84h0c22.9-28.79,64.14-76.19,41.13-91.72h0c-9.82-6.98-24.04-9.42-38.62-9.42h0c-21.59,0-43.95,5.39-53.83,9.47m-14.07,56.17c20.57-.34,34.65-.21,34.65-.21h0c-4.18,8.75-10.12,17.21-10.12,17.21h0c-16.48.78-30.84,1.06-30.84,1.06h0c1.56-8.5,6.32-18.06,6.32-18.06"/>
      <g id="g338">
        <g id="g344">
          <g id="g346">
            <path id="path354" class="cls-7" d="m733.19,1047.42s-16.04,25.59-25.47,40.03h0l17.56-.38c-23.76,41.64-55.43,101.64-80.8,144.59h0c34.12.87,76.99.08,76.99.08h0c70.18-.1,108.89-20.03,126.9-48.55h0c16.46-26.15,5.89-39.69-18.17-46.44h0c30.89-7.89,58.4-22.36,72.03-45.38h0c21.67-37.87-23.03-45.64-93.55-45.64h0c-22.89,0-48.51.81-75.48,1.69m27.85,79.35c11.08-17.92,22.41-40.57,22.41-40.57h0c17.64-.38,43.22-.23,43.22-.23h0c-12.08,20.54-23.6,40.29-23.6,40.29h0s-19.46.53-36.47.53h0c-1.89,0-3.76,0-5.57-.03m-40.39,72.3c12.04-19.5,24.85-44.24,24.85-44.24h0c19.67-.46,50.18-.32,50.18-.32h0c-13.32,22.37-26.05,44-26.05,44h0s-21.87.58-41.78.58h0c-2.45,0-4.86,0-7.2,0m241.64-142.37l.16-.07-38.42-.58,20.95,8.47c-28.08,49.58-60.83,105.04-85.28,146.12h0s18.27.21,48.2-.35h0c26.14-41.01,79.54-114.69,105.03-154.61h0s-23.54.33-50.62,1.02m371.8,22.14h0s-.12.12-.12.12l-38.04,1.66,33.78,6.04c-4.11,7.19-8.53,14.91-13.4,22.69h0c-6.98.26-14.38.3-21.19.3h0s-5.15,8.33-10.3,18.57h0l20.26.08c-11.23,18.98-21.98,37.31-29.31,51.02h0c-6.66,12.65-3.81,23.95,47.12,24.34h0c46.56.45,67.96-12.1,81.88-38.5h0s-22.59-.29-47.49.04h0s-6.59,9.61-13.18,17.28h0s-11.28.25-19.02-.14h0c9.08-14.63,22.42-34.07,35.26-53.64h0c15.42-.14,45.89.02,45.26.8h0l35.05-22.03c-14.53.51-49.76.78-66.56,1.08h0c8.08-11.93,15.18-23.32,21.38-33.37h0s-31.26,1.71-61.4,3.64m-119.72,26.68c-34.07,0-73.63,9.61-87.24,28.45h0c-14.87,21.83,26.4,29.93,62.12,38.84h0s-2.42,7.84-5.16,12.24h0c-12.52.27-34,.15-34,.15h0c.82-3.24,7.57-14.19,7.57-14.19h0c-22.46-.54-52.76-.36-52.76-.36h0c-18.4,23.56-9.15,37.43,56.71,35.58h0c33.97-1.01,65.3-8.84,76.67-24.06h0c16.26-23.15-35.74-32.68-62.82-39.73h0s4.07-8.52,7.74-14.33h0c15.72-.51,31.81-.6,31.81-.6h0s-4.18,8.71-8.34,16.32h0c26.61-.16,55.32-.7,55.32-.7h0c12.02-18.34,15.82-37.29-46.23-37.6h-1.4Zm-203.52,9.52c-17.77,7.69-23.28,13.64-34.76,34.97h0s25.49-.35,54.52-1.35h0s5.18-11.35,7.39-19.85h0c12.5-.28,28.58-.34,28.58-.34h0c-3.79,8.05-9.2,18.76-14.9,29.79h0c-8.16-3.6-23.22-5.3-41.2-4.06h0c-25.67,1.6-53.41,11.56-64.23,25.96h0c-10.33,13.49,4.54,26.31,43.63,25.86h0c13.15-.3,26.18-1.42,38.33-4.13h0l-2.91,5.66s18.33-.73,36.89-.84h0c22.9-28.79,64.14-76.19,41.13-91.72h0c-9.82-6.98-24.04-9.42-38.62-9.42h0c-21.59,0-43.95,5.39-53.83,9.47m-14.07,56.17c20.57-.34,34.65-.21,34.65-.21h0c-4.18,8.75-10.12,17.21-10.12,17.21h0c-16.48.78-30.84,1.06-30.84,1.06h0c1.56-8.5,6.32-18.06,6.32-18.06"/>
          </g>
        </g>
      </g>
    </g>
    <g id="g364">
      <path id="path366" class="cls-4" d="m830.33,1136.5c-2.71.77-5.43,1.49-8.27,2.11,7.11,1.85,17.05,3.51,21.54,6.51-1.85-3.68-8.95-6.13-13.28-8.61m-44.16,27.48c-11.05,18.63-20.47,34.53-20.47,34.53,0,0-17.82.42-35.98.57-1.89,3.19-3.8,6.4-5.71,9.46,21.4.14,48.91-.55,48.91-.55,0,0,12.82-21.58,26.11-44.01h-12.86Zm-49.61-107.14c77.56-2.51,144.04-4.51,166.43,12.15-8.62-26.76-83.7-24.53-173.65-21.57,0,0-2.74,4.4-6.63,10.54-5.55,8.72-13.34,20.99-18.9,29.48l13.59-.27c8.92-13.97,19.17-30.33,19.17-30.33m80.67,38.57c-9.81,16.73-18.08,30.85-18.08,30.85,0,0-14.26.35-29.11.5-1.84,3.16-3.74,6.38-5.62,9.44,17.88.19,42-.5,42-.5,0,0,11.51-19.77,23.63-40.25,0,0-5.38-.06-12.81-.05m-176.67,136.24c4.15.08,8.36.18,12.64.28,24.39-42.06,53.32-96.69,75.42-135.37l-12.75.26c-23.01,40.83-51.78,95.09-75.3,134.84m460.5-61c-10.22,13.04-11.88,23.1-.27,29.2-1.55-5.63,1.46-12.66,7.88-20.94,0,0,20.57-.13,40.42.18,2.13-3.97,4.72-8.08,4.72-8.08-22.47-.53-52.75-.36-52.75-.36m170.84,8.69c-3.83,7.24-4.46,14.05,5.23,18.61-.58-3.16.54-6.72,2.43-10.37,7.33-13.66,18.15-32.01,29.33-50.98l-12.5-.06c-9.41,15.95-18.25,31.07-24.5,42.81m-333.68-110.08c-27.64,48.75-59.04,99.47-82.8,139.44,0,0,4.43.17,12.4.29,24.18-40.72,56.79-92.88,83.03-139.25l-12.63-.48Zm2.86-4.75l25.23.41-.23.06c14.59-.41,28.05-.68,37.46-.85,1.93-3,3.78-5.79,5.46-8.46,0,0-23.53.32-50.56,1.02l.12-.06-57.39-1.14,39.9,9.02Zm106.71,93.77c-3.2-1.42-7.48-2.48-12.56-3.27l-1.08-.13c-14.24-2.84-28.99-2.11-52.39,3.37-16.98,4.45-32.07,12.14-39.42,21.93-5.49,7.24-3.73,14.19,4.98,19.11-.99-3.37-.18-7.05,2.69-10.84,10.82-14.42,38.58-24.35,64.35-26.01,17.95-1.18,32.93.49,41.09,4.14,5.72-11.12,11.13-21.76,14.93-29.86,0,0-5.07.02-11.72.1-3.23,6.46-6.98,13.86-10.86,21.45m335.73-49.82c-1.84,2.73-3.7,5.55-5.64,8.4,10.92-.17,29.47-.37,45.16-.61,7.24-4.61,13.72-8.76,13.72-8.76-11.27.43-35.31.69-53.24.97m-176.54,27.43c-1.28,2.52-2.72,5.32-4.14,7.95,3.97-.03,8.03-.07,12-.1,2.28-4.48,4.01-7.97,4.01-7.97,0,0-4.87,0-11.86.13m115.25-42.96c-3.09,5.34-6.31,10.82-9.8,16.43-6.94.26-14.33.3-21.15.3,0,0-5.16,8.33-10.3,18.58l11.98.05c3.37-6.16,5.95-10.34,5.95-10.34,6.85-.02,14.27-.07,21.18-.36,4.86-7.76,9.31-15.45,13.41-22.67l-11.27-2Zm-350.01,57.1s4.73-.06,12.44-.26c8.61-14.65,14.85-19.9,29.97-26.44,16.19-6.68,65.38-16.72,90.44-1.38-1.07-2.68-2.85-5.11-5.64-6.94-24.4-17.31-75.9-6.78-92.45.05-17.78,7.68-23.32,13.63-34.77,34.97m352.94-62.2l12.62-.58.12-.14c17.93-1.14,36.18-2.25,48.09-2.86,1.96-3.09,3.86-6.06,5.63-9.05,0,0-31.26,1.7-61.34,3.64l-.16.11-36.53,1.51,32.22,6.19-.65,1.16Zm28.25,77.39s-6.55,9.61-13.2,17.28c0,0-2.65.03-6.24.05-1.8,2.82-3.52,5.54-5.12,8.08,7.79.37,19.06.13,19.06.13,6.58-7.65,13.2-17.28,13.2-17.28,13.31-.15,26.01-.15,34.87-.09,1.74-2.6,3.37-5.27,4.89-8.21,0,0-22.58-.3-47.47.04m-171.3-20.13c-1.68,3.16-2.82,5.62-2.82,5.62,16.94,4.45,43.68,9.84,57.32,18.91-5.23-12.23-33.04-19.23-54.51-24.53m-158.99,34.17c-3.03,5.19-5.7,8.96-5.7,8.96-7.86.36-15.22.63-20.79.8-.92,2.73-1.81,5.64-2.33,8.54,0,0,14.31-.28,30.8-1.04,0,0,5.94-8.52,10.13-17.22,0,0-4.49-.05-12.11-.05m188.75-73.72c-34.34-.28-74.82,9.34-88.62,28.46-5.95,8.78-2.89,15.35,5.26,20.61-1.37-3.57-.79-7.62,2.4-12.3,13.81-19.24,54.31-28.77,88.65-28.54,23.2.14,37.2,2.85,45.01,7.14-3.05-8.84-16.9-15.17-52.69-15.38m-31.62,79.53c-6.46.14-15.31.16-22.31.16-1.78,3.13-3.68,6.62-4.01,8.25,0,0,21.48.08,33.95-.15,2.69-4.41,5.15-12.19,5.15-12.19-3.21-.84-6.5-1.67-9.76-2.45-.84,2.2-1.93,4.61-3.02,6.39"/>
    </g>
  </g>
</svg>